<?xml version="1.0" encoding="UTF-8"?>
<svg id="Layer_1" data-name="Layer 1" xmlns="http://www.w3.org/2000/svg" xmlns:xlink="http://www.w3.org/1999/xlink" viewBox="0 0 764 400">
  <defs>
    <style>
      .cls-1 {
        fill: #fff;
      }

      .cls-1, .cls-2, .cls-3 {
        fill-rule: evenodd;
      }

      .cls-4 {
        fill: url(#linear-gradient-2);
      }

      .cls-5 {
        fill: #0f6bff;
      }

      .cls-6 {
        fill: none;
        stroke: #000;
        stroke-miterlimit: 10;
      }

      .cls-3 {
        fill: url(#linear-gradient);
      }

      .cls-7 {
        fill: #333;
      }
    </style>
    <linearGradient id="linear-gradient" x1="477.42" y1="-3372.09" x2="477.42" y2="-3438.38" gradientTransform="translate(.09 -3125.99) scale(1 -1)" gradientUnits="userSpaceOnUse">
      <stop offset="0" stop-color="#00b1eb"/>
      <stop offset=".21" stop-color="#009ad9"/>
      <stop offset=".52" stop-color="#007fc4"/>
      <stop offset=".79" stop-color="#006eb8"/>
      <stop offset="1" stop-color="#0069b4"/>
    </linearGradient>
    <linearGradient id="linear-gradient-2" x1="0" y1="397.63" x2="764" y2="397.63" gradientUnits="userSpaceOnUse">
      <stop offset="0" stop-color="#0f6bff"/>
      <stop offset="1" stop-color="#000025"/>
    </linearGradient>
  </defs>
  <g>
    <path d="M39.26,68.08v-23h4.7l10.58,15.5v-15.5h4.53v23h-4.72l-10.6-15.6v15.6h-4.49Z"/>
    <path d="M71.91,68.39c-1.86,0-3.42-.34-4.68-1.04-1.27-.69-2.22-1.68-2.87-2.98-.65-1.3-.97-2.86-.97-4.68s.32-3.29.95-4.56c.63-1.28,1.56-2.26,2.79-2.95,1.22-.69,2.73-1.03,4.52-1.03,2.48,0,4.45.73,5.89,2.18,1.44,1.45,2.16,3.52,2.16,6.21,0,.14,0,.32-.02.56-.01.23-.03.41-.05.54h-11.71c.02.79.17,1.52.44,2.21.27.68.69,1.23,1.27,1.65.58.42,1.34.62,2.29.62s1.77-.21,2.36-.64c.59-.43.89-1.06.91-1.91h4.46c-.06,1.3-.41,2.38-1.07,3.25-.66.87-1.55,1.51-2.68,1.94-1.13.43-2.46.64-3.97.64ZM67.96,57.75h7.23c-.03-1.16-.38-2.03-1.03-2.61-.66-.58-1.5-.86-2.52-.86s-1.91.3-2.57.89c-.67.59-1.03,1.45-1.1,2.58Z"/>
    <path d="M86.47,68.08l-5.25-16.68h4.6l3.21,11.78,3.21-11.78h4.75l3.28,11.76,3.16-11.76h4.29l-5.25,16.68h-4.63l-3.37-12-3.4,12h-4.62Z"/>
    <path d="M117.66,68.08v-23h9.47c1.48,0,2.8.21,3.96.62s2.08,1.09,2.76,2.02c.68.93,1.02,2.16,1.02,3.7,0,1.46-.39,2.7-1.17,3.71s-1.96,1.74-3.55,2.17c.97.15,1.74.44,2.32.88.58.44,1.05,1.03,1.41,1.77.36.74.69,1.65.98,2.73l1.52,5.4h-5.03l-1.08-4.44c-.23-1-.49-1.82-.79-2.46-.3-.64-.7-1.11-1.21-1.43-.51-.31-1.2-.47-2.09-.47h-3.74v8.8h-4.8ZM122.46,55.31h3.86c.75,0,1.4-.12,1.94-.36.54-.24.96-.6,1.26-1.08.3-.48.45-1.06.45-1.76,0-1.01-.31-1.78-.92-2.29-.62-.51-1.43-.77-2.44-.77h-4.14v6.25Z"/>
    <path d="M147.19,68.39c-1.86,0-3.42-.34-4.68-1.04-1.27-.69-2.22-1.68-2.87-2.98-.65-1.3-.97-2.86-.97-4.68s.32-3.29.95-4.56c.63-1.28,1.56-2.26,2.79-2.95,1.22-.69,2.73-1.03,4.52-1.03,2.48,0,4.45.73,5.89,2.18,1.44,1.45,2.16,3.52,2.16,6.21,0,.14,0,.32-.02.56-.01.23-.03.41-.05.54h-11.71c.02.79.17,1.52.44,2.21.27.68.69,1.23,1.27,1.65.58.42,1.34.62,2.29.62s1.77-.21,2.36-.64c.59-.43.89-1.06.91-1.91h4.46c-.06,1.3-.41,2.38-1.07,3.25-.66.87-1.55,1.51-2.68,1.94-1.13.43-2.46.64-3.97.64ZM143.24,57.75h7.23c-.03-1.16-.38-2.03-1.03-2.61-.66-.58-1.5-.86-2.52-.86s-1.91.3-2.57.89c-.67.59-1.03,1.45-1.1,2.58Z"/>
    <path d="M165.51,68.39c-.92,0-1.83-.09-2.72-.26s-1.69-.46-2.41-.88-1.29-.98-1.71-1.7c-.42-.72-.63-1.61-.63-2.68h4.2c0,.93.33,1.58.98,1.95.65.37,1.42.55,2.3.55s1.54-.14,2.02-.42.72-.75.72-1.41-.28-1.09-.85-1.4c-.56-.31-1.55-.62-2.96-.94-1.19-.29-2.24-.63-3.17-1.03-.93-.4-1.66-.95-2.18-1.62-.52-.68-.79-1.57-.79-2.67,0-.87.2-1.6.6-2.21.4-.6.93-1.09,1.6-1.46.67-.37,1.42-.64,2.26-.81.84-.17,1.69-.26,2.57-.26s1.69.09,2.51.26,1.56.46,2.22.86c.66.41,1.19.95,1.59,1.63.4.68.6,1.54.6,2.56h-4.21c0-.85-.27-1.45-.81-1.78-.54-.33-1.18-.5-1.91-.5-.79,0-1.4.11-1.85.34-.45.23-.67.6-.67,1.13,0,.31.14.58.43.81.28.23.74.45,1.37.65.63.2,1.45.41,2.48.64,1.08.25,2.05.58,2.91.97.85.4,1.53.94,2.03,1.61.5.67.75,1.54.75,2.61,0,1-.2,1.85-.61,2.55-.4.7-.95,1.26-1.62,1.68-.68.43-1.45.74-2.32.93-.87.19-1.78.29-2.71.29Z"/>
    <path d="M184.24,68.39c-1.86,0-3.42-.34-4.68-1.04-1.27-.69-2.22-1.68-2.87-2.98-.65-1.3-.97-2.86-.97-4.68s.32-3.29.95-4.56c.63-1.28,1.56-2.26,2.79-2.95,1.22-.69,2.73-1.03,4.52-1.03,2.48,0,4.45.73,5.89,2.18,1.44,1.45,2.16,3.52,2.16,6.21,0,.14,0,.32-.02.56-.01.23-.03.41-.05.54h-11.71c.02.79.17,1.52.44,2.21.27.68.69,1.23,1.27,1.65.58.42,1.34.62,2.29.62s1.77-.21,2.36-.64c.59-.43.89-1.06.91-1.91h4.46c-.06,1.3-.41,2.38-1.07,3.25-.66.87-1.55,1.51-2.68,1.94-1.13.43-2.46.64-3.97.64ZM180.29,57.75h7.23c-.03-1.16-.38-2.03-1.03-2.61-.66-.58-1.5-.86-2.52-.86s-1.91.3-2.57.89c-.67.59-1.03,1.45-1.1,2.58Z"/>
    <path d="M200.58,68.37c-.95,0-1.83-.18-2.65-.55s-1.48-.91-1.99-1.65c-.51-.74-.76-1.66-.76-2.76,0-1.54.46-2.7,1.38-3.48.92-.78,2.21-1.31,3.87-1.59,1.66-.28,3.59-.44,5.79-.49v-.89c0-1.08-.26-1.82-.78-2.22-.52-.4-1.19-.6-2.01-.6-.9,0-1.64.21-2.22.64-.58.43-.87,1.12-.87,2.08h-4.24c0-1.42.31-2.55.93-3.38.62-.83,1.48-1.43,2.58-1.79,1.1-.36,2.37-.55,3.82-.55,1.06,0,2.03.09,2.91.27.88.18,1.64.48,2.28.91.64.43,1.14,1.02,1.5,1.77.35.75.53,1.68.53,2.79v11.19h-4.24l-.14-2.17c-.71.81-1.53,1.42-2.46,1.84-.93.42-2.01.62-3.23.62ZM202.06,65.26c.86,0,1.64-.22,2.37-.67.72-.44,1.3-.95,1.73-1.52v-2.7c-2.39.01-4.07.24-5.02.68-.96.44-1.44,1.15-1.44,2.13,0,.71.22,1.23.66,1.57s1.01.51,1.7.51Z"/>
    <path d="M215.34,68.08v-16.68h4.34l.09,2.89c.43-1,1.08-1.77,1.95-2.31.87-.54,1.91-.8,3.14-.8h.34v3.81h-.43c-.67,0-1.32.06-1.93.18-.62.12-1.17.32-1.68.62-.5.29-.93.69-1.3,1.2v11.09h-4.53Z"/>
    <path d="M235.35,68.32c-1.55,0-2.96-.3-4.22-.89-1.27-.59-2.27-1.52-3.01-2.77-.74-1.25-1.11-2.87-1.11-4.85s.35-3.61,1.06-4.89c.71-1.28,1.69-2.22,2.95-2.85,1.26-.62,2.7-.93,4.33-.93,1.41,0,2.69.23,3.83.7,1.14.47,2.04,1.16,2.72,2.09.67.93,1.01,2.1,1.03,3.51h-4.39c-.02-.86-.31-1.54-.85-2.04-.55-.51-1.32-.76-2.31-.76-1.31,0-2.26.45-2.85,1.35-.59.9-.88,2.17-.88,3.81,0,1.06.13,1.96.38,2.71.26.75.66,1.32,1.21,1.71.55.39,1.26.59,2.13.59,1.01,0,1.81-.28,2.4-.83s.89-1.34.91-2.35h4.39c-.03,1.45-.38,2.67-1.05,3.66-.67.99-1.58,1.74-2.73,2.26-1.15.51-2.47.77-3.95.77Z"/>
    <path d="M247.08,68.08v-23h4.44v8.82c.56-.72,1.29-1.35,2.2-1.91.91-.55,2.09-.83,3.52-.83,1.73,0,3.06.51,3.99,1.53.93,1.02,1.39,2.53,1.39,4.54v10.85h-4.53v-10.29c0-.59-.08-1.12-.25-1.57-.17-.46-.43-.81-.79-1.06-.37-.25-.85-.38-1.45-.38-.9,0-1.67.21-2.32.63-.64.42-1.21.93-1.68,1.54v11.12h-4.53Z"/>
    <path d="M274.78,68.08v-23h9.02c1.51,0,2.9.27,4.14.8,1.25.54,2.24,1.35,2.98,2.44.74,1.09,1.11,2.49,1.11,4.19s-.37,3.06-1.11,4.15c-.74,1.09-1.73,1.91-2.98,2.44-1.25.53-2.63.79-4.14.79h-4.22v8.19h-4.8ZM279.58,56.03h3.78c1.12,0,2.02-.3,2.71-.89s1.03-1.47,1.03-2.63-.35-2.1-1.06-2.68c-.71-.58-1.6-.87-2.68-.87h-3.78v7.08Z"/>
    <path d="M299.1,68.37c-.95,0-1.83-.18-2.65-.55s-1.48-.91-1.99-1.65c-.51-.74-.76-1.66-.76-2.76,0-1.54.46-2.7,1.38-3.48.92-.78,2.21-1.31,3.87-1.59,1.66-.28,3.59-.44,5.79-.49v-.89c0-1.08-.26-1.82-.78-2.22-.52-.4-1.19-.6-2.01-.6-.9,0-1.64.21-2.22.64-.58.43-.87,1.12-.87,2.08h-4.24c0-1.42.31-2.55.93-3.38.62-.83,1.48-1.43,2.58-1.79,1.1-.36,2.37-.55,3.82-.55,1.06,0,2.03.09,2.91.27.88.18,1.64.48,2.28.91.64.43,1.14,1.02,1.5,1.77.35.75.53,1.68.53,2.79v11.19h-4.24l-.14-2.17c-.71.81-1.53,1.42-2.46,1.84-.93.42-2.01.62-3.23.62ZM300.58,65.26c.86,0,1.64-.22,2.37-.67.72-.44,1.3-.95,1.73-1.52v-2.7c-2.39.01-4.07.24-5.02.68-.96.44-1.44,1.15-1.44,2.13,0,.71.22,1.23.66,1.57s1.01.51,1.7.51Z"/>
    <path d="M313.86,74.2v-22.8h4.27l.26,2.55c.62-.9,1.36-1.59,2.22-2.08.87-.48,1.89-.73,3.08-.73,1.3,0,2.45.31,3.46.94,1.01.63,1.8,1.58,2.38,2.85.58,1.28.86,2.91.86,4.91s-.31,3.51-.93,4.77c-.62,1.25-1.46,2.19-2.52,2.82-1.06.63-2.25.95-3.57.96-1.08.01-2.05-.21-2.9-.67-.85-.46-1.54-1.09-2.08-1.91v8.39h-4.53ZM322.24,64.92c1.14,0,2.01-.44,2.62-1.32.6-.88.91-2.15.91-3.81,0-1.77-.28-3.08-.85-3.93-.56-.85-1.34-1.28-2.32-1.28s-1.9.29-2.63.86c-.73.57-1.25,1.2-1.57,1.89v4.92c.37.73.88,1.36,1.53,1.88.65.52,1.43.79,2.32.79Z"/>
    <path d="M342.06,68.39c-1.86,0-3.42-.34-4.68-1.04-1.27-.69-2.22-1.68-2.87-2.98-.65-1.3-.97-2.86-.97-4.68s.32-3.29.95-4.56c.63-1.28,1.56-2.26,2.79-2.95,1.22-.69,2.73-1.03,4.52-1.03,2.48,0,4.45.73,5.89,2.18,1.44,1.45,2.16,3.52,2.16,6.21,0,.14,0,.32-.02.56-.01.23-.03.41-.05.54h-11.71c.02.79.17,1.52.44,2.21.27.68.69,1.23,1.27,1.65.58.42,1.34.62,2.29.62s1.77-.21,2.36-.64c.59-.43.89-1.06.91-1.91h4.46c-.06,1.3-.41,2.38-1.07,3.25-.66.87-1.55,1.51-2.68,1.94-1.13.43-2.46.64-3.97.64ZM338.11,57.75h7.23c-.03-1.16-.38-2.03-1.03-2.61-.66-.58-1.5-.86-2.52-.86s-1.91.3-2.57.89c-.67.59-1.03,1.45-1.1,2.58Z"/>
    <path d="M353.85,68.08v-16.68h4.34l.09,2.89c.43-1,1.08-1.77,1.95-2.31.87-.54,1.91-.8,3.14-.8h.34v3.81h-.43c-.67,0-1.32.06-1.93.18-.62.12-1.17.32-1.68.62-.5.29-.93.69-1.3,1.2v11.09h-4.53Z"/>
  </g>
  <g>
    <path d="M39.54,347.25l4.92-13.14h1.86l4.85,13.14h-1.82l-1.25-3.68h-5.45l-1.31,3.68h-1.81ZM43.14,342.09h4.47l-2.23-6.24-2.25,6.24Z"/>
    <path d="M60.76,347.42c-.86,0-1.62-.18-2.29-.54s-1.18-.91-1.56-1.63-.56-1.64-.56-2.73.18-2.01.55-2.74.88-1.28,1.54-1.65,1.43-.55,2.31-.55c.74,0,1.4.12,1.99.36s1.06.6,1.41,1.09.54,1.1.56,1.84h-1.61c-.04-.61-.26-1.09-.66-1.45s-.95-.53-1.65-.53c-.92,0-1.61.32-2.07.95s-.68,1.52-.68,2.67c0,.76.1,1.41.3,1.94s.51.94.92,1.22.92.42,1.53.42c.7,0,1.26-.18,1.7-.54s.66-.89.68-1.59h1.61c-.02.77-.21,1.41-.56,1.92s-.83.89-1.44,1.15-1.28.38-2.03.38Z"/>
    <path d="M71.28,347.41c-.93,0-1.73-.2-2.39-.59s-1.17-.96-1.52-1.69-.52-1.6-.52-2.61.17-1.92.52-2.66.85-1.31,1.52-1.7,1.46-.6,2.39-.6,1.76.2,2.44.6,1.19.96,1.55,1.7.54,1.63.54,2.66-.18,1.88-.54,2.61-.88,1.3-1.55,1.69-1.49.59-2.44.59ZM71.28,346.11c.7,0,1.26-.15,1.68-.46s.72-.74.9-1.28.27-1.16.27-1.85-.09-1.33-.27-1.88-.48-.99-.9-1.3-.98-.47-1.68-.47-1.23.16-1.63.47-.69.75-.86,1.3-.26,1.18-.26,1.88.09,1.31.26,1.85.46.97.86,1.28.94.46,1.63.46Z"/>
    <path d="M81.16,347.25c-.77,0-1.37-.12-1.78-.37s-.69-.6-.84-1.05-.22-1.01-.22-1.66v-10.07h1.62v9.99c0,.59.08,1.04.23,1.36s.52.47,1.1.47h.44v1.33h-.55Z"/>
    <path d="M86.18,347.25c-.77,0-1.37-.12-1.78-.37s-.69-.6-.84-1.05-.22-1.01-.22-1.66v-10.07h1.62v9.99c0,.59.08,1.04.23,1.36s.52.47,1.1.47h.44v1.33h-.55Z"/>
    <path d="M91.18,347.43c-.55,0-1.05-.1-1.5-.31s-.81-.52-1.08-.92-.41-.91-.41-1.51c0-.85.27-1.5.8-1.94s1.29-.74,2.27-.9,2.12-.25,3.43-.26v-.66c0-.81-.2-1.37-.61-1.67s-.92-.45-1.53-.45c-.66,0-1.21.17-1.66.5s-.67.86-.67,1.57h-1.58c0-.78.17-1.41.5-1.89s.8-.83,1.39-1.05,1.26-.33,2.03-.33c.49,0,.96.04,1.4.14s.85.26,1.2.5.64.58.84,1.01.31.99.31,1.67v6.36h-1.52l-.07-1.45c-.44.49-.94.88-1.52,1.18s-1.25.44-2.02.44ZM91.6,346.18c.65,0,1.24-.15,1.76-.46s.96-.69,1.31-1.16v-1.93c-1.73.02-2.97.18-3.73.49s-1.13.81-1.13,1.5c0,.47.15.85.45,1.14s.75.42,1.33.42Z"/>
    <path d="M103.97,347.43c-.7,0-1.3-.13-1.8-.41s-.9-.64-1.21-1.12l-.09,1.35h-1.52v-13.14h1.63v5.16c.33-.5.77-.91,1.3-1.22s1.17-.47,1.89-.47c.77,0,1.45.18,2.01.55s1,.92,1.31,1.65.46,1.64.46,2.72-.16,1.99-.49,2.72-.79,1.28-1.39,1.66-1.3.56-2.11.56ZM103.67,346.09c.86,0,1.51-.31,1.95-.93s.66-1.5.66-2.64-.21-2.07-.62-2.7-1.02-.94-1.83-.94c-.68,0-1.26.18-1.73.55s-.84.81-1.12,1.33v3.66c.25.48.6.88,1.04,1.2s.99.47,1.64.47Z"/>
    <path d="M114.47,347.41c-.93,0-1.73-.2-2.39-.59s-1.17-.96-1.52-1.69-.52-1.6-.52-2.61.17-1.92.52-2.66.85-1.31,1.52-1.7,1.46-.6,2.39-.6,1.76.2,2.44.6,1.19.96,1.55,1.7.54,1.63.54,2.66-.18,1.88-.54,2.61-.88,1.3-1.55,1.69-1.49.59-2.44.59ZM114.47,346.11c.7,0,1.26-.15,1.68-.46s.72-.74.9-1.28.27-1.16.27-1.85-.09-1.33-.27-1.88-.48-.99-.9-1.3-.98-.47-1.68-.47-1.23.16-1.63.47-.69.75-.86,1.3-.26,1.18-.26,1.88.09,1.31.26,1.85.46.97.86,1.28.94.46,1.63.46Z"/>
    <path d="M121.6,347.25v-9.51h1.53l.06,1.62c.27-.49.64-.91,1.11-1.24s1.09-.5,1.86-.5h.2v1.49h-.22c-.48,0-.89.06-1.25.19s-.67.29-.94.51-.5.47-.71.76v6.68h-1.63Z"/>
    <path d="M130.15,347.43c-.55,0-1.05-.1-1.5-.31s-.81-.52-1.08-.92-.41-.91-.41-1.51c0-.85.27-1.5.8-1.94s1.29-.74,2.27-.9,2.12-.25,3.43-.26v-.66c0-.81-.2-1.37-.61-1.67s-.92-.45-1.53-.45c-.66,0-1.21.17-1.66.5s-.67.86-.67,1.57h-1.58c0-.78.17-1.41.5-1.89s.8-.83,1.39-1.05,1.26-.33,2.03-.33c.49,0,.96.04,1.4.14s.85.26,1.2.5.64.58.84,1.01.31.99.31,1.67v6.36h-1.52l-.07-1.45c-.44.49-.94.88-1.52,1.18s-1.25.44-2.02.44ZM130.58,346.18c.65,0,1.24-.15,1.76-.46s.96-.69,1.31-1.16v-1.93c-1.73.02-2.97.18-3.73.49s-1.13.81-1.13,1.5c0,.47.15.85.45,1.14s.75.42,1.33.42Z"/>
    <path d="M141.32,347.25c-.77,0-1.36-.12-1.77-.37s-.69-.6-.84-1.05-.23-1.01-.23-1.66v-5.12h-1.59v-1.32h1.59v-2.18h1.62v2.18h2.34v1.32h-2.34v5.04c0,.59.08,1.05.23,1.36s.52.47,1.1.47h1.04v1.32h-1.14Z"/>
    <path d="M145.42,335.95c-.31,0-.55-.09-.74-.27s-.28-.41-.28-.68.09-.5.28-.68.43-.27.74-.27.55.09.74.27.28.41.28.68-.09.5-.28.68-.44.27-.74.27ZM144.61,347.25v-9.51h1.63v9.51h-1.63Z"/>
    <path d="M153.28,347.41c-.93,0-1.73-.2-2.39-.59s-1.17-.96-1.52-1.69-.52-1.6-.52-2.61.17-1.92.52-2.66.85-1.31,1.52-1.7,1.46-.6,2.39-.6,1.76.2,2.44.6,1.19.96,1.55,1.7.54,1.63.54,2.66-.18,1.88-.54,2.61-.88,1.3-1.55,1.69-1.49.59-2.44.59ZM153.28,346.11c.7,0,1.26-.15,1.68-.46s.72-.74.9-1.28.27-1.16.27-1.85-.09-1.33-.27-1.88-.48-.99-.9-1.3-.98-.47-1.68-.47-1.23.16-1.63.47-.69.75-.86,1.3-.26,1.18-.26,1.88.09,1.31.26,1.85.46.97.86,1.28.94.46,1.63.46Z"/>
    <path d="M160.42,347.25v-9.51h1.56l.06,1.46c.29-.38.71-.75,1.26-1.09s1.25-.51,2.1-.51c1.04,0,1.8.31,2.28.92s.71,1.48.71,2.59v6.13h-1.63v-5.9c0-.46-.05-.87-.15-1.23s-.27-.64-.52-.84-.61-.31-1.09-.31c-.71,0-1.31.16-1.79.48s-.87.67-1.16,1.06v6.74h-1.63Z"/>
    <path d="M180.13,347.43c-.7,0-1.3-.13-1.8-.41s-.9-.64-1.21-1.12l-.09,1.35h-1.52v-13.14h1.63v5.16c.33-.5.77-.91,1.3-1.22s1.17-.47,1.89-.47c.77,0,1.45.18,2.01.55s1,.92,1.31,1.65.46,1.64.46,2.72-.16,1.99-.49,2.72-.79,1.28-1.39,1.66-1.3.56-2.11.56ZM179.83,346.09c.86,0,1.51-.31,1.95-.93s.66-1.5.66-2.64-.21-2.07-.62-2.7-1.02-.94-1.83-.94c-.68,0-1.26.18-1.73.55s-.84.81-1.12,1.33v3.66c.25.48.6.88,1.04,1.2s.99.47,1.64.47Z"/>
    <path d="M190.69,347.43c-1.04,0-1.88-.22-2.54-.65s-1.15-1.02-1.47-1.77-.48-1.58-.48-2.51.15-1.82.46-2.56.78-1.32,1.42-1.73,1.44-.62,2.42-.62c1.3,0,2.31.39,3.05,1.17s1.1,1.9,1.1,3.37c0,.1,0,.21,0,.35s-.02.23-.03.29h-6.78c0,.62.11,1.19.3,1.7s.5.93.91,1.25.97.47,1.65.47c.73,0,1.3-.17,1.71-.51s.62-.83.64-1.48h1.61c-.02.67-.19,1.25-.52,1.73s-.78.86-1.37,1.12-1.28.4-2.08.4ZM187.84,341.56h5.2c-.02-.88-.25-1.56-.69-2.03s-1.06-.7-1.85-.7-1.42.23-1.87.7-.71,1.14-.79,2.04Z"/>
    <path d="M200.44,347.25c-.77,0-1.36-.12-1.77-.37s-.69-.6-.84-1.05-.23-1.01-.23-1.66v-5.12h-1.59v-1.32h1.59v-2.18h1.62v2.18h2.34v1.32h-2.34v5.04c0,.59.08,1.05.23,1.36s.52.47,1.1.47h1.04v1.32h-1.14Z"/>
    <path d="M205.31,347.25l-3.04-9.51h1.7l2.26,7.68,2.28-7.68h1.81l2.31,7.67,2.24-7.67h1.6l-3.04,9.51h-1.72l-2.33-7.74-2.32,7.74h-1.74Z"/>
    <path d="M221.91,347.43c-1.04,0-1.88-.22-2.54-.65s-1.15-1.02-1.47-1.77-.48-1.58-.48-2.51.15-1.82.46-2.56.78-1.32,1.42-1.73,1.44-.62,2.42-.62c1.3,0,2.31.39,3.05,1.17s1.1,1.9,1.1,3.37c0,.1,0,.21,0,.35s-.02.23-.03.29h-6.78c0,.62.11,1.19.3,1.7s.5.93.91,1.25.97.47,1.65.47c.73,0,1.3-.17,1.71-.51s.62-.83.64-1.48h1.61c-.02.67-.19,1.25-.52,1.73s-.78.86-1.37,1.12-1.28.4-2.08.4ZM219.06,341.56h5.2c-.02-.88-.25-1.56-.69-2.03s-1.06-.7-1.85-.7-1.42.23-1.87.7-.71,1.14-.79,2.04Z"/>
    <path d="M232.44,347.43c-1.04,0-1.88-.22-2.54-.65s-1.15-1.02-1.47-1.77-.48-1.58-.48-2.51.15-1.82.46-2.56.78-1.32,1.42-1.73,1.44-.62,2.42-.62c1.3,0,2.31.39,3.05,1.17s1.1,1.9,1.1,3.37c0,.1,0,.21,0,.35s-.02.23-.03.29h-6.78c0,.62.11,1.19.3,1.7s.5.93.91,1.25.97.47,1.65.47c.73,0,1.3-.17,1.71-.51s.62-.83.64-1.48h1.61c-.02.67-.19,1.25-.52,1.73s-.78.86-1.37,1.12-1.28.4-2.08.4ZM229.59,341.56h5.2c-.02-.88-.25-1.56-.69-2.03s-1.06-.7-1.85-.7-1.42.23-1.87.7-.71,1.14-.79,2.04Z"/>
    <path d="M239.03,347.25v-9.51h1.56l.06,1.46c.29-.38.71-.75,1.26-1.09s1.25-.51,2.1-.51c1.04,0,1.8.31,2.28.92s.71,1.48.71,2.59v6.13h-1.63v-5.9c0-.46-.05-.87-.15-1.23s-.27-.64-.52-.84-.61-.31-1.09-.31c-.71,0-1.31.16-1.79.48s-.87.67-1.16,1.06v6.74h-1.63Z"/>
    <path d="M259.87,347.43c-1.36,0-2.51-.29-3.44-.86s-1.64-1.36-2.11-2.37-.72-2.18-.72-3.51.24-2.5.72-3.52,1.18-1.81,2.11-2.38,2.08-.86,3.44-.86c.9,0,1.75.16,2.54.47s1.46.79,1.99,1.43.84,1.45.93,2.43h-1.77c-.08-.66-.3-1.2-.66-1.63s-.81-.74-1.34-.95-1.1-.31-1.7-.31c-1.05,0-1.91.24-2.56.72s-1.13,1.12-1.43,1.92-.45,1.69-.45,2.68.15,1.87.45,2.67.78,1.44,1.43,1.91,1.51.71,2.56.71,1.93-.26,2.6-.79,1.05-1.31,1.15-2.36h1.78c-.1,1.04-.41,1.89-.91,2.57s-1.15,1.19-1.94,1.53-1.69.51-2.68.51Z"/>
    <path d="M271.86,347.41c-.93,0-1.73-.2-2.39-.59s-1.17-.96-1.52-1.69-.52-1.6-.52-2.61.17-1.92.52-2.66.85-1.31,1.52-1.7,1.46-.6,2.39-.6,1.76.2,2.44.6,1.19.96,1.55,1.7.54,1.63.54,2.66-.18,1.88-.54,2.61-.88,1.3-1.55,1.69-1.49.59-2.44.59ZM271.86,346.11c.7,0,1.26-.15,1.68-.46s.72-.74.9-1.28.27-1.16.27-1.85-.09-1.33-.27-1.88-.48-.99-.9-1.3-.98-.47-1.68-.47-1.23.16-1.63.47-.69.75-.86,1.3-.26,1.18-.26,1.88.09,1.31.26,1.85.46.97.86,1.28.94.46,1.63.46Z"/>
    <path d="M283.62,347.43c-.7,0-1.3-.13-1.8-.41s-.9-.64-1.21-1.12l-.09,1.35h-1.52v-13.14h1.63v5.16c.33-.5.77-.91,1.3-1.22s1.17-.47,1.89-.47c.77,0,1.45.18,2.01.55s1,.92,1.31,1.65.46,1.64.46,2.72-.16,1.99-.49,2.72-.79,1.28-1.39,1.66-1.3.56-2.11.56ZM283.31,346.09c.86,0,1.51-.31,1.95-.93s.66-1.5.66-2.64-.21-2.07-.62-2.7-1.02-.94-1.83-.94c-.68,0-1.26.18-1.73.55s-.84.81-1.12,1.33v3.66c.25.48.6.88,1.04,1.2s.99.47,1.64.47Z"/>
    <path d="M292.57,347.43c-.55,0-1.05-.1-1.5-.31s-.81-.52-1.08-.92-.41-.91-.41-1.51c0-.85.27-1.5.8-1.94s1.29-.74,2.27-.9,2.12-.25,3.43-.26v-.66c0-.81-.2-1.37-.61-1.67s-.92-.45-1.53-.45c-.66,0-1.21.17-1.66.5s-.67.86-.67,1.57h-1.58c0-.78.17-1.41.5-1.89s.8-.83,1.39-1.05,1.26-.33,2.03-.33c.49,0,.96.04,1.4.14s.85.26,1.2.5.64.58.84,1.01.31.99.31,1.67v6.36h-1.52l-.07-1.45c-.44.49-.94.88-1.52,1.18s-1.25.44-2.02.44ZM293,346.18c.65,0,1.24-.15,1.76-.46s.96-.69,1.31-1.16v-1.93c-1.73.02-2.97.18-3.73.49s-1.13.81-1.13,1.5c0,.47.15.85.45,1.14s.75.42,1.33.42Z"/>
    <path d="M303.48,347.25c-.77,0-1.37-.12-1.78-.37s-.69-.6-.84-1.05-.22-1.01-.22-1.66v-10.07h1.62v9.99c0,.59.08,1.04.23,1.36s.52.47,1.1.47h.44v1.33h-.55Z"/>
    <path d="M309.03,347.25c-.77,0-1.36-.12-1.77-.37s-.69-.6-.84-1.05-.23-1.01-.23-1.66v-5.12h-1.59v-1.32h1.59v-2.18h1.62v2.18h2.34v1.32h-2.34v5.04c0,.59.08,1.05.23,1.36s.52.47,1.1.47h1.04v1.32h-1.14Z"/>
    <path d="M318.07,347.43c-1.36,0-2.51-.29-3.44-.86s-1.64-1.36-2.11-2.37-.72-2.18-.72-3.51.24-2.5.72-3.52,1.18-1.81,2.11-2.38,2.08-.86,3.44-.86c.9,0,1.75.16,2.54.47s1.46.79,1.99,1.43.84,1.45.93,2.43h-1.77c-.08-.66-.3-1.2-.66-1.63s-.81-.74-1.34-.95-1.1-.31-1.7-.31c-1.05,0-1.91.24-2.56.72s-1.13,1.12-1.43,1.92-.45,1.69-.45,2.68.15,1.87.45,2.67.78,1.44,1.43,1.91,1.51.71,2.56.71,1.93-.26,2.6-.79,1.05-1.31,1.15-2.36h1.78c-.1,1.04-.41,1.89-.91,2.57s-1.15,1.19-1.94,1.53-1.69.51-2.68.51Z"/>
    <path d="M330.06,347.41c-.93,0-1.73-.2-2.39-.59s-1.17-.96-1.52-1.69-.52-1.6-.52-2.61.17-1.92.52-2.66.85-1.31,1.52-1.7,1.46-.6,2.39-.6,1.76.2,2.44.6,1.19.96,1.55,1.7.54,1.63.54,2.66-.18,1.88-.54,2.61-.88,1.3-1.55,1.69-1.49.59-2.44.59ZM330.06,346.11c.7,0,1.26-.15,1.68-.46s.72-.74.9-1.28.27-1.16.27-1.85-.09-1.33-.27-1.88-.48-.99-.9-1.3-.98-.47-1.68-.47-1.23.16-1.63.47-.69.75-.86,1.3-.26,1.18-.26,1.88.09,1.31.26,1.85.46.97.86,1.28.94.46,1.63.46Z"/>
    <path d="M337.2,347.25v-9.51h1.53l.06,1.62c.27-.49.64-.91,1.11-1.24s1.09-.5,1.86-.5h.2v1.49h-.22c-.48,0-.89.06-1.25.19s-.67.29-.94.51-.5.47-.71.76v6.68h-1.63Z"/>
    <path d="M347.57,347.43c-1.04,0-1.88-.22-2.54-.65s-1.15-1.02-1.47-1.77-.48-1.58-.48-2.51.15-1.82.46-2.56.78-1.32,1.42-1.73,1.44-.62,2.42-.62c1.3,0,2.31.39,3.05,1.17s1.1,1.9,1.1,3.37c0,.1,0,.21,0,.35s-.02.23-.03.29h-6.78c0,.62.11,1.19.3,1.7s.5.93.91,1.25.97.47,1.65.47c.73,0,1.3-.17,1.71-.51s.62-.83.64-1.48h1.61c-.02.67-.19,1.25-.52,1.73s-.78.86-1.37,1.12-1.28.4-2.08.4ZM344.72,341.56h5.2c-.02-.88-.25-1.56-.69-2.03s-1.06-.7-1.85-.7-1.42.23-1.87.7-.71,1.14-.79,2.04Z"/>
    <path d="M353.64,349.97l-.41-.92c.38-.17.71-.41,1-.71s.46-.67.52-1.08l.11.1c-.36,0-.67-.12-.91-.36s-.36-.53-.36-.87.12-.65.36-.88.54-.35.91-.35.65.13.89.38.35.64.35,1.17c0,.62-.11,1.15-.33,1.61s-.51.83-.88,1.15-.78.57-1.25.77Z"/>
    <path d="M365.67,347.25v-11.67h-3.74v-1.47h9.22v1.47h-3.73v11.67h-1.75Z"/>
    <path d="M378.12,347.43c-1.23,0-2.23-.22-3.01-.65s-1.34-1.03-1.7-1.8-.54-1.64-.54-2.61v-8.26h1.78v8.05c0,1.37.3,2.34.89,2.92s1.46.87,2.58.87,2-.29,2.59-.87.89-1.56.89-2.92v-8.05h1.78v8.26c0,.98-.18,1.85-.54,2.61s-.92,1.36-1.69,1.8-1.78.65-3.03.65Z"/>
    <path d="M390.73,347.25v-13.14h4.42c1.37,0,2.55.26,3.52.78s1.71,1.27,2.22,2.25.76,2.16.76,3.54-.26,2.57-.77,3.55-1.25,1.73-2.22,2.25-2.14.77-3.51.77h-4.42ZM392.48,345.78h2.28c1.15,0,2.1-.18,2.85-.55s1.31-.93,1.67-1.69.55-1.71.55-2.87-.19-2.09-.56-2.85-.94-1.31-1.69-1.68-1.69-.56-2.83-.56h-2.28v10.2Z"/>
    <path d="M404.3,347.25v-9.51h1.53l.06,1.62c.27-.49.64-.91,1.11-1.24s1.09-.5,1.86-.5h.2v1.49h-.22c-.48,0-.89.06-1.25.19s-.67.29-.94.51-.5.47-.71.76v6.68h-1.63Z"/>
    <path d="M414.67,347.43c-1.04,0-1.88-.22-2.54-.65s-1.15-1.02-1.47-1.77-.48-1.58-.48-2.51.15-1.82.46-2.56.78-1.32,1.42-1.73,1.44-.62,2.42-.62c1.3,0,2.31.39,3.05,1.17s1.1,1.9,1.1,3.37c0,.1,0,.21,0,.35s-.02.23-.03.29h-6.78c0,.62.11,1.19.3,1.7s.5.93.91,1.25.97.47,1.65.47c.73,0,1.3-.17,1.71-.51s.62-.83.64-1.48h1.61c-.02.67-.19,1.25-.52,1.73s-.78.86-1.37,1.12-1.28.4-2.08.4ZM411.82,341.56h5.2c-.02-.88-.25-1.56-.69-2.03s-1.06-.7-1.85-.7-1.42.23-1.87.7-.71,1.14-.79,2.04Z"/>
    <path d="M424.52,347.43c-.53,0-1.04-.06-1.52-.18s-.9-.3-1.26-.56-.65-.59-.85-1-.31-.91-.31-1.5h1.57c0,.74.23,1.26.69,1.57s1.03.45,1.72.45c.62,0,1.13-.12,1.53-.36s.6-.63.6-1.18c0-.47-.18-.82-.54-1.04s-1-.45-1.91-.66c-.74-.18-1.37-.38-1.88-.61s-.89-.52-1.14-.88-.38-.8-.38-1.34c0-.42.09-.8.27-1.12s.43-.59.75-.81.7-.38,1.14-.48.91-.16,1.42-.16.97.06,1.41.18.83.3,1.16.55.6.57.8.96.29.86.29,1.41h-1.58c0-.68-.2-1.16-.61-1.44s-.9-.42-1.47-.42-1.06.1-1.43.31-.55.53-.55.98c0,.25.08.47.24.64s.44.33.82.47.9.29,1.55.44c.71.17,1.31.37,1.79.61s.84.54,1.09.9.37.84.37,1.41c0,.49-.1.92-.29,1.28s-.46.66-.8.89-.74.4-1.2.51-.96.17-1.49.17Z"/>
    <path d="M434.01,347.43c-.77,0-1.45-.19-2.01-.56s-1-.93-1.31-1.67-.46-1.65-.46-2.74.16-1.98.49-2.71.79-1.27,1.39-1.64,1.31-.55,2.12-.55c.68,0,1.27.15,1.77.44s.91.7,1.21,1.21v-5.12h1.63v13.14h-1.54l-.09-1.39c-.34.46-.77.84-1.31,1.13s-1.16.43-1.88.43ZM434.34,346.09c.7,0,1.28-.16,1.74-.49s.84-.72,1.12-1.19v-3.66c-.27-.53-.62-.97-1.05-1.32s-.98-.52-1.64-.52c-.87,0-1.52.31-1.96.93s-.66,1.5-.66,2.64.21,2.08.62,2.7,1.02.93,1.82.93Z"/>
    <path d="M445.92,347.43c-1.04,0-1.88-.22-2.54-.65s-1.15-1.02-1.47-1.77-.48-1.58-.48-2.51.15-1.82.46-2.56.78-1.32,1.42-1.73,1.44-.62,2.42-.62c1.3,0,2.31.39,3.05,1.17s1.1,1.9,1.1,3.37c0,.1,0,.21,0,.35s-.02.23-.03.29h-6.78c0,.62.11,1.19.3,1.7s.5.93.91,1.25.97.47,1.65.47c.73,0,1.3-.17,1.71-.51s.62-.83.64-1.48h1.61c-.02.67-.19,1.25-.52,1.73s-.78.86-1.37,1.12-1.28.4-2.08.4ZM443.07,341.56h5.2c-.02-.88-.25-1.56-.69-2.03s-1.06-.7-1.85-.7-1.42.23-1.87.7-.71,1.14-.79,2.04Z"/>
    <path d="M452.5,347.25v-9.51h1.56l.06,1.46c.29-.38.71-.75,1.26-1.09s1.25-.51,2.1-.51c1.04,0,1.8.31,2.28.92s.71,1.48.71,2.59v6.13h-1.63v-5.9c0-.46-.05-.87-.15-1.23s-.27-.64-.52-.84-.61-.31-1.09-.31c-.71,0-1.31.16-1.79.48s-.87.67-1.16,1.06v6.74h-1.63Z"/>
    <path d="M463.62,349.97l-.41-.92c.38-.17.71-.41,1-.71s.46-.67.52-1.08l.11.1c-.36,0-.67-.12-.91-.36s-.36-.53-.36-.87.12-.65.36-.88.54-.35.91-.35.65.13.89.38.35.64.35,1.17c0,.62-.11,1.15-.33,1.61s-.51.83-.88,1.15-.78.57-1.25.77Z"/>
    <path d="M475.76,347.43c-.55,0-1.05-.1-1.5-.31s-.81-.52-1.08-.92-.41-.91-.41-1.51c0-.85.27-1.5.8-1.94s1.29-.74,2.27-.9,2.12-.25,3.43-.26v-.66c0-.81-.2-1.37-.61-1.67s-.92-.45-1.53-.45c-.66,0-1.21.17-1.66.5s-.67.86-.67,1.57h-1.58c0-.78.17-1.41.5-1.89s.8-.83,1.39-1.05,1.26-.33,2.03-.33c.49,0,.96.04,1.4.14s.85.26,1.2.5.64.58.84,1.01.31.99.31,1.67v6.36h-1.52l-.07-1.45c-.44.49-.94.88-1.52,1.18s-1.25.44-2.02.44ZM476.18,346.18c.65,0,1.24-.15,1.76-.46s.96-.69,1.31-1.16v-1.93c-1.73.02-2.97.18-3.73.49s-1.13.81-1.13,1.5c0,.47.15.85.45,1.14s.75.42,1.33.42Z"/>
    <path d="M483.93,347.25v-9.51h1.56l.06,1.46c.29-.38.71-.75,1.26-1.09s1.25-.51,2.1-.51c1.04,0,1.8.31,2.28.92s.71,1.48.71,2.59v6.13h-1.63v-5.9c0-.46-.05-.87-.15-1.23s-.27-.64-.52-.84-.61-.31-1.09-.31c-.71,0-1.31.16-1.79.48s-.87.67-1.16,1.06v6.74h-1.63Z"/>
    <path d="M498.21,347.43c-.77,0-1.45-.19-2.01-.56s-1-.93-1.31-1.67-.46-1.65-.46-2.74.16-1.98.49-2.71.79-1.27,1.39-1.64,1.31-.55,2.12-.55c.68,0,1.27.15,1.77.44s.91.7,1.21,1.21v-5.12h1.63v13.14h-1.54l-.09-1.39c-.34.46-.77.84-1.31,1.13s-1.16.43-1.88.43ZM498.54,346.09c.7,0,1.28-.16,1.74-.49s.84-.72,1.12-1.19v-3.66c-.27-.53-.62-.97-1.05-1.32s-.98-.52-1.64-.52c-.87,0-1.52.31-1.96.93s-.66,1.5-.66,2.64.21,2.08.62,2.7,1.02.93,1.82.93Z"/>
    <path d="M514.41,347.43c-.94,0-1.78-.14-2.54-.43s-1.36-.74-1.8-1.35-.67-1.41-.67-2.38h1.77c0,.7.15,1.24.45,1.64s.71.68,1.21.84,1.05.24,1.65.24c.55,0,1.06-.08,1.52-.25s.83-.42,1.1-.75.41-.77.41-1.29c0-.46-.11-.83-.32-1.12s-.57-.55-1.07-.77-1.17-.43-2.01-.65c-.99-.26-1.8-.54-2.44-.85s-1.11-.69-1.42-1.16-.46-1.05-.46-1.76c0-.75.18-1.38.53-1.89s.86-.9,1.51-1.17,1.44-.4,2.34-.4c.85,0,1.62.14,2.32.41s1.26.68,1.68,1.23.63,1.23.63,2.04h-1.76c0-.74-.27-1.3-.82-1.68s-1.24-.57-2.05-.57-1.49.17-1.96.5-.7.83-.7,1.47c0,.38.1.71.3.96s.55.49,1.04.7,1.18.43,2.06.65c1.02.27,1.84.57,2.48.88s1.1.71,1.4,1.2.45,1.13.45,1.92c0,.85-.21,1.55-.63,2.1s-1,.98-1.73,1.25-1.55.42-2.47.42Z"/>
    <path d="M520.03,347.25l4.92-13.14h1.86l4.85,13.14h-1.82l-1.25-3.68h-5.45l-1.31,3.68h-1.81ZM523.63,342.09h4.47l-2.23-6.24-2.25,6.24Z"/>
    <path d="M533.46,347.25v-13.14h4.75c.81,0,1.55.15,2.2.46s1.17.76,1.54,1.37.57,1.34.57,2.21-.19,1.57-.57,2.15-.89,1.02-1.54,1.32-1.38.45-2.2.45h-2.99v5.19h-1.76ZM535.22,340.61h2.85c.79,0,1.44-.2,1.93-.61s.74-1.02.74-1.85c0-.88-.25-1.54-.74-1.96s-1.14-.63-1.92-.63h-2.85v5.06Z"/>
    <path d="M543.4,347.35c-.36,0-.67-.12-.91-.36s-.36-.53-.36-.87.12-.65.36-.88.54-.35.91-.35.65.12.89.35.35.53.35.88-.12.64-.35.87-.53.36-.89.36Z"/>
  </g>
  <g>
    <path d="M43.43,124.77v-14.59h-4.67v-1.84h11.52v1.84h-4.66v14.59h-2.19Z"/>
    <path d="M52.47,124.77v-16.43h2.03v6.37c.37-.48.89-.93,1.57-1.36.68-.43,1.55-.64,2.61-.64,1.33,0,2.29.38,2.88,1.15.58.77.87,1.85.87,3.25v7.67h-2.04v-7.39c0-.57-.06-1.08-.18-1.53-.12-.45-.34-.8-.65-1.06-.32-.26-.77-.38-1.37-.38-.89,0-1.63.2-2.23.6-.6.4-1.09.84-1.45,1.32v8.42h-2.04Z"/>
    <path d="M71.19,124.99c-1.29,0-2.35-.27-3.18-.81-.83-.54-1.44-1.28-1.84-2.21-.4-.93-.6-1.98-.6-3.14s.19-2.28.58-3.21c.39-.92.98-1.65,1.77-2.17.79-.52,1.8-.78,3.02-.78,1.62,0,2.89.49,3.81,1.46s1.38,2.38,1.38,4.21c0,.12,0,.27-.01.43,0,.17-.02.29-.04.36h-8.47c0,.77.13,1.48.37,2.13.24.65.62,1.17,1.14,1.56.52.39,1.21.59,2.06.59.91,0,1.62-.21,2.14-.64.51-.43.78-1.04.81-1.85h2.01c-.02.84-.24,1.56-.65,2.17-.41.61-.98,1.07-1.71,1.4-.73.33-1.6.49-2.6.49ZM67.63,117.66h6.49c-.02-1.11-.31-1.95-.87-2.54-.55-.59-1.32-.88-2.31-.88s-1.77.29-2.34.87c-.57.58-.89,1.43-.98,2.55Z"/>
    <path d="M89.72,124.99c-1.17,0-2.23-.18-3.17-.54-.94-.36-1.69-.92-2.25-1.68s-.84-1.76-.84-2.98h2.21c0,.87.19,1.55.57,2.05.38.5.88.85,1.51,1.05.63.2,1.31.3,2.06.3.69,0,1.32-.1,1.9-.31.57-.21,1.03-.52,1.37-.94s.51-.96.51-1.62c0-.57-.13-1.04-.4-1.4-.27-.37-.71-.69-1.34-.96-.62-.27-1.46-.54-2.51-.81-1.24-.33-2.25-.68-3.05-1.07-.8-.39-1.39-.87-1.78-1.45s-.58-1.31-.58-2.2c0-.94.22-1.72.66-2.36.44-.64,1.07-1.12,1.89-1.46s1.8-.5,2.93-.5c1.06,0,2.03.17,2.91.51s1.58.85,2.11,1.54c.53.68.79,1.53.79,2.55h-2.2c0-.93-.33-1.63-1.03-2.11-.69-.48-1.55-.71-2.56-.71s-1.87.21-2.45.63c-.58.42-.87,1.03-.87,1.84,0,.48.13.88.38,1.2.25.32.69.61,1.3.87.61.26,1.47.53,2.57.82,1.27.34,2.3.71,3.09,1.1.79.39,1.38.89,1.75,1.5s.56,1.41.56,2.4c0,1.06-.26,1.94-.79,2.63-.53.7-1.25,1.22-2.16,1.57s-1.94.53-3.09.53Z"/>
    <path d="M96.76,124.77l6.15-16.43h2.32l6.07,16.43h-2.27l-1.56-4.6h-6.81l-1.64,4.6h-2.26ZM101.25,118.33h5.59l-2.78-7.8-2.81,7.8Z"/>
    <path d="M113.54,124.77v-16.43h5.93c1.02,0,1.93.19,2.75.58.81.39,1.46.96,1.93,1.71.47.75.71,1.67.71,2.76s-.24,1.96-.71,2.69c-.47.72-1.11,1.27-1.93,1.65-.81.38-1.73.56-2.75.56h-3.74v6.48h-2.2ZM115.74,116.47h3.56c.99,0,1.8-.25,2.41-.76.61-.51.92-1.28.92-2.31,0-1.11-.31-1.92-.93-2.45-.62-.53-1.42-.79-2.4-.79h-3.56v6.32Z"/>
    <path d="M140.05,124.99c-1.7,0-3.13-.36-4.3-1.07-1.16-.72-2.04-1.71-2.64-2.97-.6-1.26-.9-2.72-.9-4.38s.3-3.12.9-4.39c.6-1.27,1.48-2.26,2.64-2.98s2.6-1.07,4.3-1.07c1.12,0,2.18.2,3.18.59s1.83.99,2.49,1.79c.66.8,1.05,1.81,1.17,3.03h-2.21c-.1-.82-.37-1.5-.82-2.03-.45-.53-1.01-.93-1.67-1.19-.66-.26-1.37-.39-2.13-.39-1.32,0-2.39.3-3.2.9-.82.6-1.41,1.4-1.79,2.4-.37,1-.56,2.12-.56,3.34s.19,2.33.56,3.33c.38,1,.97,1.8,1.79,2.39.82.59,1.89.89,3.2.89s2.42-.33,3.25-.99,1.31-1.64,1.44-2.95h2.22c-.13,1.29-.51,2.37-1.13,3.22-.63.85-1.44,1.49-2.43,1.91s-2.11.63-3.34.63Z"/>
    <path d="M153.59,124.77c-.97,0-1.71-.15-2.22-.46-.51-.3-.86-.74-1.05-1.32-.19-.57-.28-1.26-.28-2.07v-12.59h2.03v12.49c0,.74.1,1.31.29,1.7.19.39.65.59,1.37.59h.55v1.66h-.68Z"/>
    <path d="M161.55,124.97c-1.16,0-2.16-.25-2.99-.74-.83-.49-1.46-1.2-1.9-2.11-.44-.92-.65-2-.65-3.27s.22-2.4.65-3.33c.43-.92,1.07-1.63,1.9-2.13.83-.5,1.83-.75,2.99-.75s2.2.25,3.05.75c.84.5,1.49,1.21,1.94,2.13.45.92.68,2.03.68,3.33s-.23,2.35-.68,3.27c-.45.92-1.1,1.62-1.94,2.11-.84.49-1.86.74-3.05.74ZM161.55,123.34c.88,0,1.58-.19,2.1-.58.52-.39.9-.92,1.12-1.6.23-.68.34-1.45.34-2.31s-.11-1.66-.34-2.36-.6-1.23-1.12-1.63c-.52-.39-1.22-.59-2.1-.59s-1.53.2-2.03.59c-.5.4-.86.94-1.08,1.63-.22.69-.33,1.48-.33,2.36s.11,1.63.33,2.31c.22.68.58,1.21,1.08,1.6.5.39,1.18.58,2.03.58Z"/>
    <path d="M174.1,124.96c-1.38,0-2.37-.38-2.98-1.15-.61-.77-.92-1.82-.92-3.16v-7.76h2.05v7.48c0,.54.06,1.02.18,1.44.12.42.35.75.7.99s.83.35,1.48.35c.9,0,1.64-.18,2.25-.55.6-.37,1.09-.8,1.45-1.29v-8.42h2.05v11.89h-1.97l-.06-1.83c-.38.47-.92.93-1.62,1.36-.7.44-1.57.65-2.62.65Z"/>
    <path d="M188.36,124.99c-.97,0-1.81-.23-2.51-.7-.71-.46-1.26-1.16-1.64-2.08-.39-.92-.58-2.06-.58-3.42s.21-2.48.62-3.38c.41-.9.99-1.59,1.74-2.04.75-.46,1.63-.69,2.65-.69.85,0,1.58.18,2.21.55.63.37,1.13.87,1.51,1.51v-6.4h2.04v16.43h-1.93l-.11-1.73c-.42.58-.97,1.05-1.63,1.41-.67.36-1.45.54-2.36.54ZM188.77,123.32c.87,0,1.59-.21,2.17-.62.58-.41,1.05-.9,1.4-1.48v-4.58c-.33-.67-.77-1.22-1.31-1.65-.54-.44-1.22-.65-2.04-.65-1.08,0-1.9.39-2.45,1.16-.55.77-.82,1.87-.82,3.3s.26,2.6.78,3.37c.52.77,1.28,1.16,2.28,1.16Z"/>
    <path d="M203.57,124.77v-16.43h2.2v16.43h-2.2Z"/>
    <path d="M209.89,124.77v-11.89h1.95l.07,1.83c.37-.48.89-.93,1.57-1.36.68-.43,1.56-.64,2.62-.64,1.3,0,2.25.38,2.84,1.15.59.77.89,1.85.89,3.24v7.67h-2.04v-7.37c0-.58-.06-1.09-.18-1.54-.12-.45-.34-.8-.65-1.06-.31-.26-.77-.38-1.36-.38-.89,0-1.63.2-2.23.6-.6.4-1.09.84-1.45,1.32v8.42h-2.04Z"/>
    <path d="M224.09,124.77v-10.24h-1.99v-1.65h1.99v-.68c0-.6.05-1.14.15-1.62.1-.48.28-.89.54-1.21.26-.33.61-.58,1.07-.76.46-.17,1.06-.26,1.79-.26h1.23v1.6h-1.1c-.72,0-1.18.2-1.37.59s-.29.96-.29,1.7v.66h2.77v1.65h-2.77v10.24h-2.03Z"/>
    <path d="M231.2,124.77v-11.89h1.92l.07,2.03c.33-.62.8-1.14,1.39-1.55.59-.42,1.37-.62,2.32-.62h.24v1.87h-.28c-.59,0-1.11.08-1.56.23-.45.15-.84.37-1.17.64-.33.27-.63.59-.89.95v8.35h-2.04Z"/>
    <path d="M241.89,124.99c-.68,0-1.31-.13-1.87-.39s-1.02-.64-1.35-1.15c-.34-.51-.51-1.14-.51-1.89,0-1.07.33-1.88,1-2.43.67-.55,1.61-.93,2.83-1.13s2.65-.31,4.29-.32v-.83c0-1.02-.25-1.71-.76-2.09-.5-.38-1.14-.57-1.92-.57-.82,0-1.51.21-2.08.62s-.84,1.07-.84,1.97h-1.98c0-.98.21-1.77.63-2.37.42-.6,1-1.04,1.73-1.32.74-.28,1.58-.41,2.53-.41.61,0,1.19.06,1.75.17.56.12,1.06.32,1.5.62s.8.72,1.06,1.26c.26.54.39,1.24.39,2.09v7.95h-1.9l-.08-1.81c-.54.61-1.18,1.1-1.9,1.47-.72.37-1.56.56-2.52.56ZM242.42,123.43c.81,0,1.55-.19,2.2-.57.65-.38,1.2-.87,1.64-1.45v-2.42c-2.17.02-3.72.23-4.66.61-.94.38-1.41,1.01-1.41,1.88,0,.59.19,1.07.57,1.42.38.35.93.53,1.67.53Z"/>
    <path d="M256.31,124.99c-.67,0-1.3-.07-1.9-.22-.6-.15-1.12-.38-1.58-.7-.46-.32-.81-.73-1.07-1.25-.26-.52-.38-1.14-.38-1.87h1.97c0,.93.29,1.58.86,1.96.57.38,1.29.57,2.15.57.77,0,1.41-.15,1.91-.45.5-.3.75-.79.75-1.47,0-.59-.23-1.02-.68-1.31-.45-.29-1.25-.56-2.39-.83-.93-.22-1.71-.47-2.34-.76-.63-.29-1.11-.66-1.43-1.1s-.48-1-.48-1.68c0-.53.11-1,.34-1.4.22-.4.54-.74.94-1.01.4-.27.88-.47,1.42-.6.54-.13,1.14-.2,1.77-.2s1.21.07,1.76.22c.55.15,1.03.38,1.45.68.42.31.75.71,1,1.2s.37,1.07.37,1.76h-1.98c0-.85-.25-1.45-.76-1.79s-1.12-.53-1.84-.53-1.33.13-1.78.39c-.46.26-.68.67-.68,1.22,0,.32.1.59.31.81.2.22.54.42,1.03.59.48.17,1.13.36,1.94.55.89.21,1.63.46,2.23.76s1.06.67,1.36,1.13c.3.46.46,1.05.46,1.76,0,.62-.12,1.15-.36,1.61-.24.45-.57.82-1,1.11-.43.29-.93.5-1.5.64-.57.14-1.19.21-1.86.21Z"/>
    <path d="M268.07,124.77c-.96,0-1.7-.15-2.21-.46-.51-.3-.86-.74-1.06-1.32-.19-.57-.29-1.26-.29-2.07v-6.4h-1.99v-1.65h1.99v-2.72h2.03v2.72h2.93v1.65h-2.93v6.3c0,.74.1,1.31.29,1.7.19.4.65.59,1.37.59h1.29v1.65h-1.43Z"/>
    <path d="M272.18,124.77v-11.89h1.92l.07,2.03c.33-.62.8-1.14,1.39-1.55.59-.42,1.37-.62,2.32-.62h.24v1.87h-.28c-.59,0-1.11.08-1.56.23-.45.15-.84.37-1.17.64-.33.27-.63.59-.89.95v8.35h-2.04Z"/>
    <path d="M284.26,124.96c-1.38,0-2.37-.38-2.98-1.15-.61-.77-.92-1.82-.92-3.16v-7.76h2.05v7.48c0,.54.06,1.02.18,1.44.12.42.35.75.7.99s.83.35,1.48.35c.9,0,1.64-.18,2.25-.55.6-.37,1.09-.8,1.45-1.29v-8.42h2.05v11.89h-1.97l-.06-1.83c-.38.47-.92.93-1.62,1.36-.7.44-1.57.65-2.62.65Z"/>
    <path d="M299.28,124.98c-1.07,0-2.03-.23-2.86-.68-.83-.45-1.48-1.13-1.95-2.04-.47-.91-.7-2.04-.7-3.41s.23-2.51.69-3.42c.46-.92,1.1-1.6,1.93-2.06.83-.46,1.79-.69,2.89-.69.92,0,1.75.15,2.48.45s1.32.75,1.76,1.36c.44.61.67,1.37.7,2.3h-2.01c-.05-.76-.33-1.37-.83-1.81-.5-.44-1.19-.66-2.06-.66-1.16,0-2.02.4-2.59,1.19-.57.79-.85,1.91-.85,3.34,0,.95.13,1.76.38,2.42.25.66.63,1.17,1.15,1.53.51.35,1.15.53,1.92.53.87,0,1.58-.23,2.12-.68.54-.45.83-1.11.85-1.98h2.01c-.02.96-.26,1.76-.7,2.4-.44.64-1.04,1.12-1.79,1.43s-1.6.48-2.53.48Z"/>
    <path d="M311.54,124.77c-.96,0-1.7-.15-2.21-.46-.51-.3-.86-.74-1.06-1.32-.19-.57-.29-1.26-.29-2.07v-6.4h-1.99v-1.65h1.99v-2.72h2.03v2.72h2.93v1.65h-2.93v6.3c0,.74.1,1.31.29,1.7.19.4.65.59,1.37.59h1.29v1.65h-1.43Z"/>
    <path d="M319.42,124.96c-1.38,0-2.37-.38-2.98-1.15-.61-.77-.92-1.82-.92-3.16v-7.76h2.05v7.48c0,.54.06,1.02.18,1.44.12.42.35.75.7.99s.83.35,1.48.35c.9,0,1.64-.18,2.25-.55.6-.37,1.09-.8,1.45-1.29v-8.42h2.05v11.89h-1.97l-.06-1.83c-.38.47-.92.93-1.62,1.36-.7.44-1.57.65-2.62.65Z"/>
    <path d="M329.62,124.77v-11.89h1.92l.07,2.03c.33-.62.8-1.14,1.39-1.55.59-.42,1.37-.62,2.32-.62h.24v1.87h-.28c-.59,0-1.11.08-1.56.23-.45.15-.84.37-1.17.64-.33.27-.63.59-.89.95v8.35h-2.04Z"/>
    <path d="M342.58,124.99c-1.29,0-2.35-.27-3.18-.81-.83-.54-1.44-1.28-1.84-2.21-.4-.93-.6-1.98-.6-3.14s.19-2.28.58-3.21c.39-.92.98-1.65,1.77-2.17.79-.52,1.8-.78,3.02-.78,1.62,0,2.89.49,3.81,1.46s1.38,2.38,1.38,4.21c0,.12,0,.27-.01.43,0,.17-.02.29-.04.36h-8.47c0,.77.13,1.48.37,2.13.24.65.62,1.17,1.14,1.56.52.39,1.21.59,2.06.59.91,0,1.62-.21,2.14-.64.51-.43.78-1.04.81-1.85h2.01c-.02.84-.24,1.56-.65,2.17-.41.61-.98,1.07-1.71,1.4-.73.33-1.6.49-2.6.49ZM339.02,117.66h6.49c-.02-1.11-.31-1.95-.87-2.54-.55-.59-1.32-.88-2.31-.88s-1.77.29-2.34.87c-.57.58-.89,1.43-.98,2.55Z"/>
    <path d="M356.07,124.77v-16.43h5.53c1.72,0,3.18.32,4.39.97,1.21.65,2.14,1.58,2.77,2.81.63,1.23.95,2.71.95,4.43s-.32,3.21-.96,4.44c-.64,1.23-1.56,2.17-2.78,2.81s-2.67.96-4.38.96h-5.53ZM358.27,122.93h2.84c1.44,0,2.63-.23,3.56-.69.94-.46,1.63-1.16,2.09-2.11s.69-2.14.69-3.58-.23-2.62-.7-3.56c-.47-.94-1.17-1.64-2.11-2.11-.94-.46-2.12-.7-3.53-.7h-2.84v12.74Z"/>
    <path d="M376.08,124.99c-.68,0-1.31-.13-1.87-.39s-1.02-.64-1.35-1.15c-.34-.51-.51-1.14-.51-1.89,0-1.07.33-1.88,1-2.43.67-.55,1.61-.93,2.83-1.13s2.65-.31,4.29-.32v-.83c0-1.02-.25-1.71-.76-2.09-.5-.38-1.14-.57-1.92-.57-.82,0-1.51.21-2.08.62s-.84,1.07-.84,1.97h-1.98c0-.98.21-1.77.63-2.37.42-.6,1-1.04,1.73-1.32.74-.28,1.58-.41,2.53-.41.61,0,1.19.06,1.75.17.56.12,1.06.32,1.5.62s.8.72,1.06,1.26c.26.54.39,1.24.39,2.09v7.95h-1.9l-.08-1.81c-.54.61-1.18,1.1-1.9,1.47-.72.37-1.56.56-2.52.56ZM376.61,123.43c.81,0,1.55-.19,2.2-.57.65-.38,1.2-.87,1.64-1.45v-2.42c-2.17.02-3.72.23-4.66.61-.94.38-1.41,1.01-1.41,1.88,0,.59.19,1.07.57,1.42.38.35.93.53,1.67.53Z"/>
    <path d="M390.04,124.77c-.96,0-1.7-.15-2.21-.46-.51-.3-.86-.74-1.06-1.32-.19-.57-.29-1.26-.29-2.07v-6.4h-1.99v-1.65h1.99v-2.72h2.03v2.72h2.93v1.65h-2.93v6.3c0,.74.1,1.31.29,1.7.19.4.65.59,1.37.59h1.29v1.65h-1.43Z"/>
    <path d="M397.12,124.99c-.68,0-1.31-.13-1.87-.39s-1.02-.64-1.35-1.15c-.34-.51-.51-1.14-.51-1.89,0-1.07.33-1.88,1-2.43.67-.55,1.61-.93,2.83-1.13s2.65-.31,4.29-.32v-.83c0-1.02-.25-1.71-.76-2.09-.5-.38-1.14-.57-1.92-.57-.82,0-1.51.21-2.08.62s-.84,1.07-.84,1.97h-1.98c0-.98.21-1.77.63-2.37.42-.6,1-1.04,1.73-1.32.74-.28,1.58-.41,2.53-.41.61,0,1.19.06,1.75.17.56.12,1.06.32,1.5.62s.8.72,1.06,1.26c.26.54.39,1.24.39,2.09v7.95h-1.9l-.08-1.81c-.54.61-1.18,1.1-1.9,1.47-.72.37-1.56.56-2.52.56ZM397.66,123.43c.81,0,1.55-.19,2.2-.57.65-.38,1.2-.87,1.64-1.45v-2.42c-2.17.02-3.72.23-4.66.61-.94.38-1.41,1.01-1.41,1.88,0,.59.19,1.07.57,1.42.38.35.93.53,1.67.53Z"/>
    <path d="M411.55,124.99c-.67,0-1.3-.07-1.9-.22-.6-.15-1.12-.38-1.58-.7-.46-.32-.81-.73-1.07-1.25-.26-.52-.38-1.14-.38-1.87h1.97c0,.93.29,1.58.86,1.96.57.38,1.29.57,2.15.57.77,0,1.41-.15,1.91-.45.5-.3.75-.79.75-1.47,0-.59-.23-1.02-.68-1.31-.45-.29-1.25-.56-2.39-.83-.93-.22-1.71-.47-2.34-.76-.63-.29-1.11-.66-1.43-1.1s-.48-1-.48-1.68c0-.53.11-1,.34-1.4.22-.4.54-.74.94-1.01.4-.27.88-.47,1.42-.6.54-.13,1.14-.2,1.77-.2s1.21.07,1.76.22c.55.15,1.03.38,1.45.68.42.31.75.71,1,1.2s.37,1.07.37,1.76h-1.98c0-.85-.25-1.45-.76-1.79s-1.12-.53-1.84-.53-1.33.13-1.78.39c-.46.26-.68.67-.68,1.22,0,.32.1.59.31.81.2.22.54.42,1.03.59.48.17,1.13.36,1.94.55.89.21,1.63.46,2.23.76s1.06.67,1.36,1.13c.3.46.46,1.05.46,1.76,0,.62-.12,1.15-.36,1.61-.24.45-.57.82-1,1.11-.43.29-.93.5-1.5.64-.57.14-1.19.21-1.86.21Z"/>
    <path d="M424.28,124.99c-1.29,0-2.35-.27-3.18-.81-.83-.54-1.44-1.28-1.84-2.21-.4-.93-.6-1.98-.6-3.14s.19-2.28.58-3.21c.39-.92.98-1.65,1.77-2.17.79-.52,1.8-.78,3.02-.78,1.62,0,2.89.49,3.81,1.46s1.38,2.38,1.38,4.21c0,.12,0,.27-.01.43,0,.17-.02.29-.04.36h-8.47c0,.77.13,1.48.37,2.13.24.65.62,1.17,1.14,1.56.52.39,1.21.59,2.06.59.91,0,1.62-.21,2.14-.64.51-.43.78-1.04.81-1.85h2.01c-.02.84-.24,1.56-.65,2.17-.41.61-.98,1.07-1.71,1.4-.73.33-1.6.49-2.6.49ZM420.72,117.66h6.49c-.02-1.11-.31-1.95-.87-2.54-.55-.59-1.32-.88-2.31-.88s-1.77.29-2.34.87c-.57.58-.89,1.43-.98,2.55Z"/>
    <path d="M436.48,124.77c-.96,0-1.7-.15-2.21-.46-.51-.3-.86-.74-1.06-1.32-.19-.57-.29-1.26-.29-2.07v-6.4h-1.99v-1.65h1.99v-2.72h2.03v2.72h2.93v1.65h-2.93v6.3c0,.74.1,1.31.29,1.7.19.4.65.59,1.37.59h1.29v1.65h-1.43Z"/>
    <path d="M442.21,115.96c-.46,0-.83-.15-1.14-.45-.3-.3-.45-.66-.45-1.09s.15-.82.45-1.1c.3-.29.68-.43,1.14-.43s.82.14,1.11.43.44.66.44,1.1-.15.8-.44,1.09-.66.45-1.11.45ZM442.21,124.9c-.46,0-.83-.15-1.14-.45-.3-.3-.45-.66-.45-1.09s.15-.82.45-1.1c.3-.29.68-.43,1.14-.43s.82.14,1.11.43.44.66.44,1.1-.15.8-.44,1.09-.66.45-1.11.45Z"/>
    <path d="M38.58,154.77l5.91-16.43h3.6l5.92,16.43h-3.58l-1.17-3.61h-5.93l-1.21,3.61h-3.54ZM44.14,148.32h4.27l-2.14-6.58-2.14,6.58Z"/>
    <path d="M61.09,154.77v-16.43h6.76c1.06,0,2,.15,2.83.45.83.3,1.49.78,1.97,1.44s.73,1.54.73,2.64c0,1.04-.28,1.92-.84,2.65-.56.72-1.4,1.24-2.53,1.55.69.11,1.25.32,1.66.63s.75.73,1.01,1.26c.26.53.49,1.18.7,1.95l1.09,3.86h-3.59l-.77-3.17c-.16-.72-.35-1.3-.56-1.76-.21-.46-.5-.79-.86-1.02-.36-.22-.86-.34-1.5-.34h-2.67v6.29h-3.43ZM64.52,145.66h2.76c.54,0,1-.09,1.39-.26.39-.17.69-.43.9-.77.21-.34.32-.76.32-1.26,0-.72-.22-1.27-.66-1.63-.44-.37-1.02-.55-1.75-.55h-2.95v4.47Z"/>
    <path d="M82.18,154.99c-1.33,0-2.44-.25-3.35-.74-.9-.49-1.59-1.2-2.05-2.13-.46-.93-.7-2.04-.7-3.35s.23-2.35.68-3.26c.45-.91,1.11-1.61,1.99-2.11s1.95-.74,3.23-.74c1.77,0,3.17.52,4.21,1.56,1.03,1.04,1.54,2.52,1.54,4.44,0,.1,0,.23-.01.4,0,.17-.02.29-.04.38h-8.36c.02.56.12,1.09.31,1.57s.5.88.91,1.18c.42.3.96.45,1.64.45s1.26-.15,1.68-.46c.42-.3.64-.76.65-1.36h3.19c-.04.93-.3,1.7-.76,2.32-.47.62-1.11,1.08-1.92,1.38-.81.3-1.76.46-2.84.46ZM79.36,147.4h5.16c-.03-.83-.27-1.45-.74-1.86-.47-.41-1.07-.62-1.8-.62s-1.36.21-1.84.63c-.48.42-.74,1.04-.79,1.84Z"/>
    <path d="M93.85,154.98c-.68,0-1.31-.13-1.89-.39s-1.06-.65-1.42-1.18-.54-1.18-.54-1.97c0-1.1.33-1.93.99-2.48.66-.56,1.58-.94,2.77-1.14,1.18-.2,2.56-.31,4.13-.35v-.63c0-.77-.19-1.3-.56-1.59s-.85-.43-1.43-.43c-.64,0-1.17.15-1.59.46-.41.31-.62.8-.62,1.48h-3.03c0-1.02.22-1.82.67-2.42s1.06-1.02,1.84-1.28c.79-.26,1.69-.39,2.73-.39.76,0,1.45.06,2.07.19.63.13,1.17.34,1.63.65.46.31.82.73,1.07,1.26s.38,1.2.38,2v8h-3.03l-.1-1.55c-.5.58-1.09,1.02-1.76,1.31-.67.3-1.44.45-2.31.45ZM94.91,152.76c.61,0,1.17-.16,1.69-.48.52-.32.93-.68,1.24-1.09v-1.93c-1.71,0-2.91.17-3.59.48s-1.03.82-1.03,1.52c0,.5.16.88.47,1.12.31.24.72.37,1.21.37Z"/>
    <path d="M108.87,154.77c-1.21,0-2.15-.14-2.81-.43s-1.12-.74-1.38-1.34c-.26-.61-.39-1.4-.39-2.37v-12.28h3.22v12.09c0,.63.09,1.09.26,1.38s.57.44,1.2.44h.74v2.53h-.84Z"/>
    <path d="M113.42,141.3c-.59,0-1.05-.15-1.36-.45-.31-.3-.47-.68-.47-1.12s.16-.83.47-1.13c.31-.3.77-.45,1.36-.45s1.05.15,1.36.45c.31.3.47.67.47,1.13s-.16.82-.47,1.12c-.31.3-.77.45-1.36.45ZM111.79,154.77v-11.91h3.24v11.91h-3.24Z"/>
    <path d="M123.64,154.77c-1.21,0-2.14-.14-2.8-.43-.66-.29-1.12-.74-1.39-1.34-.26-.61-.39-1.4-.39-2.37v-5.27h-1.98v-2.49h1.98v-2.81h3.23v2.81h2.6v2.49h-2.6v5.08c0,.63.09,1.09.26,1.39s.57.45,1.19.45h1.15v2.5h-1.26Z"/>
    <path d="M127.09,159.14v-2.62h1.07c.48,0,.88-.09,1.2-.26.32-.17.56-.45.7-.84l.27-.65-4.64-11.91h3.37l3.02,8.81,2.69-8.81h3.27l-4.29,11.91-.44,1.18c-.31.84-.67,1.49-1.07,1.95-.41.46-.91.79-1.5.96-.59.18-1.33.27-2.2.27h-1.45Z"/>
    <path d="M152.33,154.99c-1.66,0-3.09-.35-4.29-1.04s-2.12-1.67-2.76-2.93-.96-2.74-.96-4.45.32-3.2.96-4.46c.64-1.26,1.56-2.25,2.76-2.94s2.62-1.04,4.29-1.04c1.29,0,2.47.22,3.55.66,1.08.45,1.96,1.1,2.64,1.97.68.87,1.05,1.93,1.11,3.2h-3.52c-.09-.67-.31-1.22-.65-1.66-.35-.44-.79-.77-1.32-.99-.54-.22-1.14-.33-1.81-.33-1.07,0-1.94.26-2.59.78-.66.52-1.13,1.2-1.43,2.04-.3.84-.45,1.76-.45,2.77s.15,1.91.45,2.76c.3.85.77,1.53,1.43,2.04.66.51,1.52.77,2.59.77,1.13,0,2.02-.29,2.68-.87s1.03-1.41,1.13-2.48h3.52c-.1,1.34-.45,2.48-1.06,3.4s-1.44,1.62-2.5,2.1c-1.06.47-2.31.71-3.76.71Z"/>
    <path d="M162.51,154.77v-16.43h3.17v6.3c.4-.51.92-.96,1.58-1.36.65-.39,1.49-.59,2.51-.59,1.24,0,2.19.37,2.85,1.09s1,1.81,1,3.24v7.75h-3.23v-7.35c0-.42-.06-.8-.18-1.12-.12-.32-.31-.58-.57-.76-.26-.18-.61-.27-1.04-.27-.64,0-1.19.15-1.65.45-.46.3-.86.67-1.2,1.1v7.95h-3.24Z"/>
    <path d="M182.47,154.99c-1.33,0-2.44-.25-3.35-.74-.9-.49-1.59-1.2-2.05-2.13-.46-.93-.7-2.04-.7-3.35s.23-2.35.68-3.26c.45-.91,1.11-1.61,1.99-2.11s1.95-.74,3.23-.74c1.77,0,3.17.52,4.21,1.56,1.03,1.04,1.54,2.52,1.54,4.44,0,.1,0,.23-.01.4,0,.17-.02.29-.04.38h-8.36c.02.56.12,1.09.31,1.57s.5.88.91,1.18c.42.3.96.45,1.64.45s1.26-.15,1.68-.46c.42-.3.64-.76.65-1.36h3.19c-.04.93-.3,1.7-.76,2.32-.47.62-1.11,1.08-1.92,1.38-.81.3-1.76.46-2.84.46ZM179.65,147.4h5.16c-.03-.83-.27-1.45-.74-1.86-.47-.41-1.07-.62-1.8-.62s-1.36.21-1.84.63c-.48.42-.74,1.04-.79,1.84Z"/>
    <path d="M196.24,154.94c-1.11,0-2.11-.21-3.02-.63-.9-.42-1.62-1.08-2.15-1.98-.53-.9-.79-2.05-.79-3.47s.25-2.58.76-3.49c.5-.91,1.21-1.59,2.11-2.03s1.93-.67,3.09-.67c1.01,0,1.92.17,2.73.5s1.46.83,1.94,1.5c.48.66.72,1.5.73,2.51h-3.14c-.02-.61-.22-1.1-.61-1.46-.39-.36-.94-.54-1.65-.54-.94,0-1.61.32-2.03.96s-.63,1.55-.63,2.72c0,.76.09,1.4.27,1.93.18.53.47.94.87,1.22.39.28.9.42,1.52.42.72,0,1.3-.2,1.72-.59.42-.39.64-.96.65-1.68h3.14c-.02,1.03-.27,1.9-.75,2.61-.48.71-1.12,1.25-1.95,1.61-.82.37-1.76.55-2.82.55Z"/>
    <path d="M204.62,154.77v-16.43h3.24v10.01l4.65-5.49h3.52l-4.71,5.48,5.05,6.43h-3.69l-4.82-6.29v6.29h-3.24Z"/>
    <path d="M228.46,154.97c-1.2,0-2.26-.24-3.17-.72-.91-.48-1.61-1.18-2.11-2.09-.5-.91-.74-2.01-.74-3.31s.25-2.44.74-3.36c.5-.92,1.2-1.63,2.11-2.11.91-.48,1.96-.72,3.17-.72s2.29.24,3.19.72c.91.48,1.61,1.19,2.12,2.11s.76,2.04.76,3.36-.25,2.4-.76,3.31c-.5.91-1.21,1.61-2.12,2.09s-1.97.72-3.19.72ZM228.46,152.5c.71,0,1.26-.16,1.67-.49.4-.33.69-.77.85-1.32.17-.55.25-1.16.25-1.83s-.08-1.31-.25-1.87c-.17-.56-.45-1.01-.85-1.34-.4-.33-.96-.5-1.67-.5s-1.23.17-1.63.5c-.4.33-.67.78-.84,1.34-.16.56-.24,1.19-.24,1.87s.08,1.28.24,1.83c.16.55.44.99.84,1.32.39.33.94.49,1.63.49Z"/>
    <path d="M237.89,154.77v-9.42h-1.98v-2.49h1.98v-.38c0-.72.07-1.34.21-1.86.14-.53.38-.96.71-1.29.34-.33.8-.58,1.4-.75.59-.16,1.35-.24,2.26-.24h1.18v2.34h-1.07c-.62,0-1.02.14-1.19.43s-.26.74-.26,1.37v.38h2.54v2.49h-2.54v9.42h-3.23Z"/>
    <path d="M256.64,154.99c-1.25,0-2.37-.18-3.36-.53-1-.35-1.79-.92-2.37-1.69s-.88-1.78-.88-3.03h3.52c.02.63.16,1.13.44,1.49.28.36.65.62,1.12.78.47.15,1,.23,1.61.23s1.09-.07,1.53-.21.78-.35,1.03-.64.37-.66.37-1.11-.11-.79-.32-1.07c-.21-.28-.59-.54-1.12-.77-.54-.23-1.29-.48-2.26-.75-1.13-.33-2.11-.68-2.94-1.07-.83-.39-1.46-.89-1.92-1.51-.45-.62-.68-1.42-.68-2.42,0-1.07.26-1.94.77-2.61s1.23-1.17,2.14-1.48c.91-.32,1.96-.48,3.14-.48s2.15.17,3.09.51c.94.34,1.69.86,2.25,1.56.56.7.84,1.59.84,2.67h-3.52c0-.7-.25-1.22-.78-1.57s-1.16-.52-1.9-.52-1.34.13-1.82.41c-.48.27-.72.69-.72,1.26,0,.32.1.61.31.86.2.25.58.49,1.13.73.55.24,1.34.51,2.39.81,1.24.37,2.27.75,3.06,1.15.8.4,1.39.92,1.78,1.56.39.64.58,1.48.58,2.52,0,1.16-.29,2.1-.86,2.82-.57.71-1.34,1.24-2.33,1.57s-2.09.5-3.33.5Z"/>
    <path d="M271.41,154.94c-1.11,0-2.11-.21-3.02-.63-.9-.42-1.62-1.08-2.15-1.98-.53-.9-.79-2.05-.79-3.47s.25-2.58.76-3.49c.5-.91,1.21-1.59,2.11-2.03s1.93-.67,3.09-.67c1.01,0,1.92.17,2.73.5s1.46.83,1.94,1.5c.48.66.72,1.5.73,2.51h-3.14c-.02-.61-.22-1.1-.61-1.46-.39-.36-.94-.54-1.65-.54-.94,0-1.61.32-2.03.96s-.63,1.55-.63,2.72c0,.76.09,1.4.27,1.93.18.53.47.94.87,1.22.39.28.9.42,1.52.42.72,0,1.3-.2,1.72-.59.42-.39.64-.96.65-1.68h3.14c-.02,1.03-.27,1.9-.75,2.61-.48.71-1.12,1.25-1.95,1.61-.82.37-1.76.55-2.82.55Z"/>
    <path d="M279.79,154.77v-16.43h3.17v6.3c.4-.51.92-.96,1.58-1.36.65-.39,1.49-.59,2.51-.59,1.24,0,2.19.37,2.85,1.09s1,1.81,1,3.24v7.75h-3.23v-7.35c0-.42-.06-.8-.18-1.12-.12-.32-.31-.58-.57-.76-.26-.18-.61-.27-1.04-.27-.64,0-1.19.15-1.65.45-.46.3-.86.67-1.2,1.1v7.95h-3.24Z"/>
    <path d="M299.75,154.99c-1.33,0-2.44-.25-3.35-.74-.9-.49-1.59-1.2-2.05-2.13-.46-.93-.7-2.04-.7-3.35s.23-2.35.68-3.26c.45-.91,1.11-1.61,1.99-2.11s1.95-.74,3.23-.74c1.77,0,3.17.52,4.21,1.56,1.03,1.04,1.54,2.52,1.54,4.44,0,.1,0,.23-.01.4,0,.17-.02.29-.04.38h-8.36c.02.56.12,1.09.31,1.57s.5.88.91,1.18c.42.3.96.45,1.64.45s1.26-.15,1.68-.46c.42-.3.64-.76.65-1.36h3.19c-.04.93-.3,1.7-.76,2.32-.47.62-1.11,1.08-1.92,1.38-.81.3-1.76.46-2.84.46ZM296.93,147.4h5.16c-.03-.83-.27-1.45-.74-1.86-.47-.41-1.07-.62-1.8-.62s-1.36.21-1.84.63c-.48.42-.74,1.04-.79,1.84Z"/>
    <path d="M312.27,154.98c-.9,0-1.7-.22-2.41-.67s-1.27-1.13-1.68-2.06-.62-2.1-.62-3.52.22-2.51.67-3.41c.44-.89,1.04-1.56,1.8-2s1.61-.66,2.55-.66c.83,0,1.54.17,2.14.51s1.07.79,1.42,1.34v-6.18h3.24v16.43h-3.1l-.13-1.7c-.42.59-.95,1.05-1.58,1.39-.63.34-1.39.51-2.28.51ZM313.22,152.52c.68,0,1.27-.19,1.77-.57.5-.38.88-.83,1.14-1.34v-3.48c-.25-.54-.61-1.01-1.06-1.4-.46-.4-1.02-.6-1.69-.6-.8,0-1.42.31-1.86.93s-.66,1.51-.66,2.69c0,1.29.21,2.24.63,2.86.42.62,1,.93,1.73.93Z"/>
    <path d="M326.49,154.93c-1.21,0-2.14-.37-2.8-1.12s-.99-1.8-.99-3.18v-7.78h3.24v7.38c0,.41.06.77.18,1.08.12.31.31.56.59.73.27.17.63.26,1.08.26.65,0,1.21-.14,1.67-.43.46-.29.86-.64,1.2-1.05v-7.96h3.23v11.91h-3.12l-.05-1.79c-.4.5-.94.96-1.63,1.36-.69.4-1.55.6-2.59.6Z"/>
    <path d="M341.82,154.77c-1.21,0-2.15-.14-2.81-.43s-1.12-.74-1.38-1.34c-.26-.61-.39-1.4-.39-2.37v-12.28h3.22v12.09c0,.63.09,1.09.26,1.38s.57.44,1.2.44h.74v2.53h-.84Z"/>
    <path d="M346.38,141.3c-.59,0-1.05-.15-1.36-.45-.31-.3-.47-.68-.47-1.12s.16-.83.47-1.13c.31-.3.77-.45,1.36-.45s1.05.15,1.36.45c.31.3.47.67.47,1.13s-.16.82-.47,1.12c-.31.3-.77.45-1.36.45ZM344.75,154.77v-11.91h3.24v11.91h-3.24Z"/>
    <path d="M351.46,154.77v-11.91h3.11l.06,1.78c.4-.51.92-.96,1.58-1.36.65-.39,1.5-.59,2.54-.59,1.21,0,2.15.37,2.82,1.11s1,1.81,1,3.23v7.75h-3.21v-7.34c0-.43-.06-.81-.18-1.14-.12-.32-.32-.58-.58-.76-.26-.18-.61-.27-1.04-.27-.64,0-1.19.15-1.65.45-.46.3-.86.67-1.2,1.1v7.95h-3.24Z"/>
    <path d="M370.62,159.38c-1.42,0-2.56-.15-3.39-.44s-1.44-.68-1.81-1.15c-.37-.47-.55-.99-.55-1.54,0-.68.32-1.27.96-1.78.64-.51,1.66-.86,3.05-1.07l.54-1.15h1.61c1.98,0,3.42.27,4.33.82s1.36,1.38,1.36,2.5-.52,2.06-1.56,2.76c-1.04.7-2.56,1.05-4.54,1.05ZM368.94,154.5c-.85-.1-1.55-.27-2.08-.52s-.92-.54-1.16-.86-.37-.65-.37-.96c0-.5.19-.92.57-1.26.38-.35.95-.65,1.71-.91l1.68.61c-.44.11-.81.23-1.1.38s-.44.34-.44.56c0,.15.09.28.26.39.17.11.48.18.92.24.44.05,1.04.08,1.8.08l-1.81,2.26ZM370.4,150.98c-1.07,0-1.99-.19-2.75-.57-.76-.38-1.33-.89-1.72-1.51s-.59-1.3-.59-2.03c0-.77.2-1.47.59-2.09s.97-1.12,1.74-1.5c.77-.37,1.7-.56,2.8-.56s2.07.19,2.81.56c.75.38,1.3.87,1.67,1.5.37.62.56,1.32.56,2.09s-.19,1.42-.57,2.05c-.38.63-.94,1.13-1.7,1.5-.75.37-1.7.56-2.85.56ZM370.57,157.35c1.09,0,1.86-.14,2.31-.43.45-.29.67-.63.67-1.04,0-.26-.08-.48-.23-.66-.16-.18-.41-.32-.77-.41s-.83-.15-1.43-.15h-2.17c-.32.12-.58.29-.77.52-.2.22-.3.48-.3.78,0,.34.21.66.63.95.42.29,1.11.44,2.06.44ZM370.4,149.04c.6,0,1.1-.18,1.51-.55.4-.37.6-.91.6-1.62,0-.75-.19-1.31-.56-1.67-.38-.37-.86-.55-1.46-.55s-1.12.19-1.51.57c-.4.38-.6.93-.6,1.65s.21,1.26.62,1.62c.41.37.88.55,1.41.55ZM373.81,144.52l-.95-1.21c.32-.85.81-1.42,1.47-1.73.66-.31,1.46-.47,2.4-.48v2.36c-.63,0-1.21.06-1.74.18-.53.12-.92.41-1.18.88Z"/>
    <path d="M387.04,154.98c-.68,0-1.31-.13-1.89-.39s-1.06-.65-1.42-1.18-.54-1.18-.54-1.97c0-1.1.33-1.93.99-2.48.66-.56,1.58-.94,2.77-1.14,1.18-.2,2.56-.31,4.13-.35v-.63c0-.77-.19-1.3-.56-1.59s-.85-.43-1.43-.43c-.64,0-1.17.15-1.59.46-.41.31-.62.8-.62,1.48h-3.03c0-1.02.22-1.82.67-2.42s1.06-1.02,1.84-1.28c.79-.26,1.69-.39,2.73-.39.76,0,1.45.06,2.07.19.63.13,1.17.34,1.63.65.46.31.82.73,1.07,1.26s.38,1.2.38,2v8h-3.03l-.1-1.55c-.5.58-1.09,1.02-1.76,1.31-.67.3-1.44.45-2.31.45ZM388.1,152.76c.61,0,1.17-.16,1.69-.48.52-.32.93-.68,1.24-1.09v-1.93c-1.71,0-2.91.17-3.59.48s-1.03.82-1.03,1.52c0,.5.16.88.47,1.12.31.24.72.37,1.21.37Z"/>
    <path d="M397.59,154.77v-11.91h3.11l.06,1.78c.4-.51.92-.96,1.58-1.36.65-.39,1.5-.59,2.54-.59,1.21,0,2.15.37,2.82,1.11s1,1.81,1,3.23v7.75h-3.21v-7.34c0-.43-.06-.81-.18-1.14-.12-.32-.32-.58-.58-.76-.26-.18-.61-.27-1.04-.27-.64,0-1.19.15-1.65.45-.46.3-.86.67-1.2,1.1v7.95h-3.24Z"/>
    <path d="M416.17,154.98c-.9,0-1.7-.22-2.41-.67s-1.27-1.13-1.68-2.06-.62-2.1-.62-3.52.22-2.51.67-3.41c.44-.89,1.04-1.56,1.8-2s1.61-.66,2.55-.66c.83,0,1.54.17,2.14.51s1.07.79,1.42,1.34v-6.18h3.24v16.43h-3.1l-.13-1.7c-.42.59-.95,1.05-1.58,1.39-.63.34-1.39.51-2.28.51ZM417.12,152.52c.68,0,1.27-.19,1.77-.57.5-.38.88-.83,1.14-1.34v-3.48c-.25-.54-.61-1.01-1.06-1.4-.46-.4-1.02-.6-1.69-.6-.8,0-1.42.31-1.86.93s-.66,1.51-.66,2.69c0,1.29.21,2.24.63,2.86.42.62,1,.93,1.73.93Z"/>
    <path d="M432.02,154.77v-16.43h6.45c1.08,0,2.07.19,2.96.57.89.38,1.6.96,2.13,1.75s.79,1.78.79,2.99-.26,2.19-.79,2.97-1.24,1.36-2.13,1.74c-.89.38-1.88.57-2.96.57h-3.01v5.85h-3.43ZM435.45,146.17h2.7c.8,0,1.44-.21,1.93-.63.49-.42.74-1.05.74-1.88s-.25-1.5-.76-1.92c-.5-.42-1.14-.62-1.92-.62h-2.7v5.05Z"/>
    <path d="M450.78,154.77c-1.21,0-2.15-.14-2.81-.43s-1.12-.74-1.38-1.34c-.26-.61-.39-1.4-.39-2.37v-12.28h3.22v12.09c0,.63.09,1.09.26,1.38s.57.44,1.2.44h.74v2.53h-.84Z"/>
    <path d="M457.23,154.98c-.68,0-1.31-.13-1.89-.39s-1.06-.65-1.42-1.18-.54-1.18-.54-1.97c0-1.1.33-1.93.99-2.48.66-.56,1.58-.94,2.77-1.14,1.18-.2,2.56-.31,4.13-.35v-.63c0-.77-.19-1.3-.56-1.59s-.85-.43-1.43-.43c-.64,0-1.17.15-1.59.46-.41.31-.62.8-.62,1.48h-3.03c0-1.02.22-1.82.67-2.42s1.06-1.02,1.84-1.28c.79-.26,1.69-.39,2.73-.39.76,0,1.45.06,2.07.19.63.13,1.17.34,1.63.65.46.31.82.73,1.07,1.26s.38,1.2.38,2v8h-3.03l-.1-1.55c-.5.58-1.09,1.02-1.76,1.31-.67.3-1.44.45-2.31.45ZM458.29,152.76c.61,0,1.17-.16,1.69-.48.52-.32.93-.68,1.24-1.09v-1.93c-1.71,0-2.91.17-3.59.48s-1.03.82-1.03,1.52c0,.5.16.88.47,1.12.31.24.72.37,1.21.37Z"/>
    <path d="M473.12,154.94c-1.11,0-2.11-.21-3.02-.63-.9-.42-1.62-1.08-2.15-1.98-.53-.9-.79-2.05-.79-3.47s.25-2.58.76-3.49c.5-.91,1.21-1.59,2.11-2.03s1.93-.67,3.09-.67c1.01,0,1.92.17,2.73.5s1.46.83,1.94,1.5c.48.66.72,1.5.73,2.51h-3.14c-.02-.61-.22-1.1-.61-1.46-.39-.36-.94-.54-1.65-.54-.94,0-1.61.32-2.03.96s-.63,1.55-.63,2.72c0,.76.09,1.4.27,1.93.18.53.47.94.87,1.22.39.28.9.42,1.52.42.72,0,1.3-.2,1.72-.59.42-.39.64-.96.65-1.68h3.14c-.02,1.03-.27,1.9-.75,2.61-.48.71-1.12,1.25-1.95,1.61-.82.37-1.76.55-2.82.55Z"/>
    <path d="M486.98,154.99c-1.33,0-2.44-.25-3.35-.74-.9-.49-1.59-1.2-2.05-2.13-.46-.93-.7-2.04-.7-3.35s.23-2.35.68-3.26c.45-.91,1.11-1.61,1.99-2.11s1.95-.74,3.23-.74c1.77,0,3.17.52,4.21,1.56,1.03,1.04,1.54,2.52,1.54,4.44,0,.1,0,.23-.01.4,0,.17-.02.29-.04.38h-8.36c.02.56.12,1.09.31,1.57s.5.88.91,1.18c.42.3.96.45,1.64.45s1.26-.15,1.68-.46c.42-.3.64-.76.65-1.36h3.19c-.04.93-.3,1.7-.76,2.32-.47.62-1.11,1.08-1.92,1.38-.81.3-1.76.46-2.84.46ZM484.16,147.4h5.16c-.03-.83-.27-1.45-.74-1.86-.47-.41-1.07-.62-1.8-.62s-1.36.21-1.84.63c-.48.42-.74,1.04-.79,1.84Z"/>
    <path d="M495.4,154.77v-11.91h3.11l.06,1.78c.39-.51.93-.96,1.62-1.36.69-.39,1.54-.59,2.55-.59,1.2,0,2.11.38,2.75,1.13.64.75.96,1.82.96,3.21v7.75h-3.24v-7.34c0-.43-.06-.81-.18-1.14-.12-.32-.31-.58-.57-.76-.26-.18-.61-.27-1.03-.27-.63,0-1.16.15-1.61.45-.45.3-.84.67-1.18,1.1v7.95h-3.24ZM511.04,154.77v-7.34c0-.43-.06-.81-.18-1.14-.12-.32-.31-.58-.57-.76-.26-.18-.61-.27-1.03-.27-.63,0-1.17.14-1.62.42-.45.28-.86.62-1.21,1.04l-.39-2c.51-.54,1.14-1.02,1.89-1.43.74-.41,1.62-.61,2.63-.61,1.19,0,2.11.38,2.75,1.13.65.75.97,1.82.97,3.21v7.75h-3.23Z"/>
    <path d="M523.11,154.99c-1.33,0-2.44-.25-3.35-.74-.9-.49-1.59-1.2-2.05-2.13-.46-.93-.7-2.04-.7-3.35s.23-2.35.68-3.26c.45-.91,1.11-1.61,1.99-2.11s1.95-.74,3.23-.74c1.77,0,3.17.52,4.21,1.56,1.03,1.04,1.54,2.52,1.54,4.44,0,.1,0,.23-.01.4,0,.17-.02.29-.04.38h-8.36c.02.56.12,1.09.31,1.57s.5.88.91,1.18c.42.3.96.45,1.64.45s1.26-.15,1.68-.46c.42-.3.64-.76.65-1.36h3.19c-.04.93-.3,1.7-.76,2.32-.47.62-1.11,1.08-1.92,1.38-.81.3-1.76.46-2.84.46ZM520.29,147.4h5.16c-.03-.83-.27-1.45-.74-1.86-.47-.41-1.07-.62-1.8-.62s-1.36.21-1.84.63c-.48.42-.74,1.04-.79,1.84Z"/>
    <path d="M531.53,154.77v-11.91h3.11l.06,1.78c.4-.51.92-.96,1.58-1.36.65-.39,1.5-.59,2.54-.59,1.21,0,2.15.37,2.82,1.11s1,1.81,1,3.23v7.75h-3.21v-7.34c0-.43-.06-.81-.18-1.14-.12-.32-.32-.58-.58-.76-.26-.18-.61-.27-1.04-.27-.64,0-1.19.15-1.65.45-.46.3-.86.67-1.2,1.1v7.95h-3.24Z"/>
    <path d="M551.1,154.77c-1.21,0-2.14-.14-2.8-.43-.66-.29-1.12-.74-1.39-1.34-.26-.61-.39-1.4-.39-2.37v-5.27h-1.98v-2.49h1.98v-2.81h3.23v2.81h2.6v2.49h-2.6v5.08c0,.63.09,1.09.26,1.39s.57.45,1.19.45h1.15v2.5h-1.26Z"/>
    <path d="M45.68,184.97c-1.2,0-2.26-.24-3.17-.72-.91-.48-1.61-1.18-2.11-2.09-.5-.91-.74-2.01-.74-3.31s.25-2.44.74-3.36c.5-.92,1.2-1.63,2.11-2.11.91-.48,1.96-.72,3.17-.72s2.29.24,3.19.72c.91.48,1.61,1.19,2.12,2.11s.76,2.04.76,3.36-.25,2.4-.76,3.31c-.5.91-1.21,1.61-2.12,2.09s-1.97.72-3.19.72ZM45.68,182.5c.71,0,1.26-.16,1.67-.49.4-.33.69-.77.85-1.32.17-.55.25-1.16.25-1.83s-.08-1.31-.25-1.87c-.17-.56-.45-1.01-.85-1.34-.4-.33-.96-.5-1.67-.5s-1.23.17-1.63.5c-.4.33-.67.78-.84,1.34-.16.56-.24,1.19-.24,1.87s.08,1.28.24,1.83c.16.55.44.99.84,1.32.39.33.94.49,1.63.49Z"/>
    <path d="M55.12,184.77v-9.42h-1.98v-2.49h1.98v-.38c0-.72.07-1.34.21-1.86.14-.53.38-.96.71-1.29.34-.33.8-.58,1.4-.75.59-.16,1.35-.24,2.26-.24h1.18v2.34h-1.07c-.62,0-1.02.14-1.19.43s-.26.74-.26,1.37v.38h2.54v2.49h-2.54v9.42h-3.23Z"/>
    <path d="M71.94,184.77l-5.58-16.43h3.67l3.97,12.93,4.03-12.93h3.67l-5.7,16.43h-4.06Z"/>
    <path d="M83.71,184.77v-16.43h3.94l5.15,8.77h-1.37l5.08-8.77h3.8v16.43h-3.38v-14.6h1.5l-5.37,9.35h-2.11l-5.5-9.35h1.55v14.6h-3.28Z"/>
    <path d="M108.78,184.99c-.66,0-1.31-.06-1.94-.18-.63-.12-1.21-.33-1.72-.63s-.92-.7-1.22-1.21c-.3-.51-.45-1.15-.45-1.92h3c0,.67.23,1.13.7,1.39s1.02.39,1.64.39,1.1-.1,1.44-.3.51-.54.51-1.01c0-.45-.2-.78-.6-1-.4-.22-1.11-.44-2.12-.67-.85-.2-1.6-.45-2.26-.74s-1.18-.68-1.56-1.16c-.38-.48-.56-1.12-.56-1.91,0-.62.14-1.14.43-1.57s.67-.78,1.14-1.04c.48-.26,1.01-.46,1.61-.58.6-.12,1.21-.18,1.84-.18s1.21.06,1.79.18c.59.12,1.11.33,1.59.62.47.29.85.68,1.14,1.17s.43,1.1.43,1.83h-3c0-.61-.19-1.04-.58-1.27-.39-.24-.84-.36-1.36-.36-.56,0-1,.08-1.32.24-.32.16-.48.43-.48.81,0,.22.1.41.3.58.2.17.53.32.98.46.45.14,1.04.29,1.77.46.77.18,1.46.41,2.08.7s1.09.67,1.45,1.15c.36.48.54,1.1.54,1.87,0,.71-.15,1.32-.43,1.82-.29.5-.68.9-1.16,1.2-.48.31-1.04.53-1.66.67-.62.14-1.27.21-1.93.21Z"/>
    <path d="M123.59,171.3c-.59,0-1.05-.15-1.36-.45-.31-.3-.47-.68-.47-1.12s.16-.83.47-1.13c.31-.3.77-.45,1.36-.45s1.05.15,1.36.45c.31.3.47.67.47,1.13s-.16.82-.47,1.12c-.31.3-.77.45-1.36.45ZM121.96,184.77v-11.91h3.24v11.91h-3.24Z"/>
    <path d="M128.67,184.77v-11.91h3.11l.06,1.78c.4-.51.92-.96,1.58-1.36.65-.39,1.5-.59,2.54-.59,1.21,0,2.15.37,2.82,1.11s1,1.81,1,3.23v7.75h-3.21v-7.34c0-.43-.06-.81-.18-1.14-.12-.32-.32-.58-.58-.76-.26-.18-.61-.27-1.04-.27-.64,0-1.19.15-1.65.45-.46.3-.86.67-1.2,1.1v7.95h-3.24Z"/>
    <path d="M155.7,184.99c-1.66,0-3.09-.35-4.29-1.04s-2.12-1.67-2.76-2.93-.96-2.74-.96-4.45.32-3.2.96-4.46c.64-1.26,1.56-2.25,2.76-2.94s2.62-1.04,4.29-1.04c1.29,0,2.47.22,3.55.66,1.08.45,1.96,1.1,2.64,1.97.68.87,1.05,1.93,1.11,3.2h-3.52c-.09-.67-.31-1.22-.65-1.66-.35-.44-.79-.77-1.32-.99-.54-.22-1.14-.33-1.81-.33-1.07,0-1.94.26-2.59.78-.66.52-1.13,1.2-1.43,2.04-.3.84-.45,1.76-.45,2.77s.15,1.91.45,2.76c.3.85.77,1.53,1.43,2.04.66.51,1.52.77,2.59.77,1.13,0,2.02-.29,2.68-.87s1.03-1.41,1.13-2.48h3.52c-.1,1.34-.45,2.48-1.06,3.4s-1.44,1.62-2.5,2.1c-1.06.47-2.31.71-3.76.71Z"/>
    <path d="M170.35,184.77c-1.21,0-2.15-.14-2.81-.43s-1.12-.74-1.38-1.34c-.26-.61-.39-1.4-.39-2.37v-12.28h3.22v12.09c0,.63.09,1.09.26,1.38s.57.44,1.2.44h.74v2.53h-.84Z"/>
    <path d="M178.69,184.97c-1.2,0-2.26-.24-3.17-.72-.91-.48-1.61-1.18-2.11-2.09-.5-.91-.74-2.01-.74-3.31s.25-2.44.74-3.36c.5-.92,1.2-1.63,2.11-2.11.91-.48,1.96-.72,3.17-.72s2.29.24,3.19.72c.91.48,1.61,1.19,2.12,2.11s.76,2.04.76,3.36-.25,2.4-.76,3.31c-.5.91-1.21,1.61-2.12,2.09s-1.97.72-3.19.72ZM178.69,182.5c.71,0,1.26-.16,1.67-.49.4-.33.69-.77.85-1.32.17-.55.25-1.16.25-1.83s-.08-1.31-.25-1.87c-.17-.56-.45-1.01-.85-1.34-.4-.33-.96-.5-1.67-.5s-1.23.17-1.63.5c-.4.33-.67.78-.84,1.34-.16.56-.24,1.19-.24,1.87s.08,1.28.24,1.83c.16.55.44.99.84,1.32.39.33.94.49,1.63.49Z"/>
    <path d="M191.08,184.93c-1.21,0-2.14-.37-2.8-1.12s-.99-1.8-.99-3.18v-7.78h3.24v7.38c0,.41.06.77.18,1.08.12.31.31.56.59.73.27.17.63.26,1.08.26.65,0,1.21-.14,1.67-.43.46-.29.86-.64,1.2-1.05v-7.96h3.23v11.91h-3.12l-.05-1.79c-.4.5-.94.96-1.63,1.36-.69.4-1.55.6-2.59.6Z"/>
    <path d="M206.05,184.98c-.9,0-1.7-.22-2.41-.67s-1.27-1.13-1.68-2.06-.62-2.1-.62-3.52.22-2.51.67-3.41c.44-.89,1.04-1.56,1.8-2s1.61-.66,2.55-.66c.83,0,1.54.17,2.14.51s1.07.79,1.42,1.34v-6.18h3.24v16.43h-3.1l-.13-1.7c-.42.59-.95,1.05-1.58,1.39-.63.34-1.39.51-2.28.51ZM207,182.52c.68,0,1.27-.19,1.77-.57.5-.38.88-.83,1.14-1.34v-3.48c-.25-.54-.61-1.01-1.06-1.4-.46-.4-1.02-.6-1.69-.6-.8,0-1.42.31-1.86.93s-.66,1.51-.66,2.69c0,1.29.21,2.24.63,2.86.42.62,1,.93,1.73.93Z"/>
    <path d="M229.15,184.99c-1.66,0-3.09-.35-4.29-1.04s-2.12-1.67-2.76-2.93-.96-2.74-.96-4.45.32-3.2.96-4.46c.64-1.26,1.56-2.25,2.76-2.94s2.62-1.04,4.29-1.04c1.29,0,2.47.22,3.55.66,1.08.45,1.96,1.1,2.64,1.97.68.87,1.05,1.93,1.11,3.2h-3.52c-.09-.67-.31-1.22-.65-1.66-.35-.44-.79-.77-1.32-.99-.54-.22-1.14-.33-1.81-.33-1.07,0-1.94.26-2.59.78-.66.52-1.13,1.2-1.43,2.04-.3.84-.45,1.76-.45,2.77s.15,1.91.45,2.76c.3.85.77,1.53,1.43,2.04.66.51,1.52.77,2.59.77,1.13,0,2.02-.29,2.68-.87s1.03-1.41,1.13-2.48h3.52c-.1,1.34-.45,2.48-1.06,3.4s-1.44,1.62-2.5,2.1c-1.06.47-2.31.71-3.76.71Z"/>
    <path d="M244.74,184.97c-1.2,0-2.26-.24-3.17-.72-.91-.48-1.61-1.18-2.11-2.09-.5-.91-.74-2.01-.74-3.31s.25-2.44.74-3.36c.5-.92,1.2-1.63,2.11-2.11.91-.48,1.96-.72,3.17-.72s2.29.24,3.19.72c.91.48,1.61,1.19,2.12,2.11s.76,2.04.76,3.36-.25,2.4-.76,3.31c-.5.91-1.21,1.61-2.12,2.09s-1.97.72-3.19.72ZM244.74,182.5c.71,0,1.26-.16,1.67-.49.4-.33.69-.77.85-1.32.17-.55.25-1.16.25-1.83s-.08-1.31-.25-1.87c-.17-.56-.45-1.01-.85-1.34-.4-.33-.96-.5-1.67-.5s-1.23.17-1.63.5c-.4.33-.67.78-.84,1.34-.16.56-.24,1.19-.24,1.87s.08,1.28.24,1.83c.16.55.44.99.84,1.32.39.33.94.49,1.63.49Z"/>
    <path d="M253.67,184.77v-11.91h3.11l.06,1.78c.39-.51.93-.96,1.62-1.36.69-.39,1.54-.59,2.55-.59,1.2,0,2.11.38,2.75,1.13.64.75.96,1.82.96,3.21v7.75h-3.24v-7.34c0-.43-.06-.81-.18-1.14-.12-.32-.31-.58-.57-.76-.26-.18-.61-.27-1.03-.27-.63,0-1.16.15-1.61.45-.45.3-.84.67-1.18,1.1v7.95h-3.24ZM269.3,184.77v-7.34c0-.43-.06-.81-.18-1.14-.12-.32-.31-.58-.57-.76-.26-.18-.61-.27-1.03-.27-.63,0-1.17.14-1.62.42-.45.28-.86.62-1.21,1.04l-.39-2c.51-.54,1.14-1.02,1.89-1.43.74-.41,1.62-.61,2.63-.61,1.19,0,2.11.38,2.75,1.13.65.75.97,1.82.97,3.21v7.75h-3.23Z"/>
    <path d="M275.89,189.14v-16.28h3.05l.18,1.82c.44-.64.97-1.14,1.59-1.48.62-.35,1.35-.52,2.2-.52.93,0,1.75.22,2.47.67.72.45,1.29,1.13,1.7,2.04.41.91.62,2.08.62,3.5s-.22,2.51-.67,3.41-1.04,1.57-1.8,2.01c-.76.45-1.61.68-2.55.68-.77,0-1.46-.15-2.07-.47-.61-.33-1.1-.78-1.48-1.37v5.99h-3.24ZM281.88,182.52c.81,0,1.44-.31,1.87-.94.43-.63.65-1.53.65-2.72,0-1.26-.2-2.2-.6-2.81-.4-.61-.95-.92-1.65-.92s-1.36.21-1.88.62c-.52.41-.9.86-1.12,1.35v3.52c.26.52.62.97,1.09,1.34s1.02.56,1.65.56Z"/>
    <path d="M294.02,184.93c-1.21,0-2.14-.37-2.8-1.12s-.99-1.8-.99-3.18v-7.78h3.24v7.38c0,.41.06.77.18,1.08.12.31.31.56.59.73.27.17.63.26,1.08.26.65,0,1.21-.14,1.67-.43.46-.29.86-.64,1.2-1.05v-7.96h3.23v11.91h-3.12l-.05-1.79c-.4.5-.94.96-1.63,1.36-.69.4-1.55.6-2.59.6Z"/>
    <path d="M310.03,184.77c-1.21,0-2.14-.14-2.8-.43-.66-.29-1.12-.74-1.39-1.34-.26-.61-.39-1.4-.39-2.37v-5.27h-1.98v-2.49h1.98v-2.81h3.23v2.81h2.6v2.49h-2.6v5.08c0,.63.09,1.09.26,1.39s.57.45,1.19.45h1.15v2.5h-1.26Z"/>
    <path d="M315.45,171.3c-.59,0-1.05-.15-1.36-.45-.31-.3-.47-.68-.47-1.12s.16-.83.47-1.13c.31-.3.77-.45,1.36-.45s1.05.15,1.36.45c.31.3.47.67.47,1.13s-.16.82-.47,1.12c-.31.3-.77.45-1.36.45ZM313.82,184.77v-11.91h3.24v11.91h-3.24Z"/>
    <path d="M320.52,184.77v-11.91h3.11l.06,1.78c.4-.51.92-.96,1.58-1.36.65-.39,1.5-.59,2.54-.59,1.21,0,2.15.37,2.82,1.11s1,1.81,1,3.23v7.75h-3.21v-7.34c0-.43-.06-.81-.18-1.14-.12-.32-.32-.58-.58-.76-.26-.18-.61-.27-1.04-.27-.64,0-1.19.15-1.65.45-.46.3-.86.67-1.2,1.1v7.95h-3.24Z"/>
    <path d="M339.69,189.38c-1.42,0-2.56-.15-3.39-.44s-1.44-.68-1.81-1.15c-.37-.47-.55-.99-.55-1.54,0-.68.32-1.27.96-1.78.64-.51,1.66-.86,3.05-1.07l.54-1.15h1.61c1.98,0,3.42.27,4.33.82s1.36,1.38,1.36,2.5-.52,2.06-1.56,2.76c-1.04.7-2.56,1.05-4.54,1.05ZM338,184.5c-.85-.1-1.55-.27-2.08-.52s-.92-.54-1.16-.86-.37-.65-.37-.96c0-.5.19-.92.57-1.26.38-.35.95-.65,1.71-.91l1.68.61c-.44.11-.81.23-1.1.38s-.44.34-.44.56c0,.15.09.28.26.39.17.11.48.18.92.24.44.05,1.04.08,1.8.08l-1.81,2.26ZM339.47,180.98c-1.07,0-1.99-.19-2.75-.57-.76-.38-1.33-.89-1.72-1.51s-.59-1.3-.59-2.03c0-.77.2-1.47.59-2.09s.97-1.12,1.74-1.5c.77-.37,1.7-.56,2.8-.56s2.07.19,2.81.56c.75.38,1.3.87,1.67,1.5.37.62.56,1.32.56,2.09s-.19,1.42-.57,2.05c-.38.63-.94,1.13-1.7,1.5-.75.37-1.7.56-2.85.56ZM339.64,187.35c1.09,0,1.86-.14,2.31-.43.45-.29.67-.63.67-1.04,0-.26-.08-.48-.23-.66-.16-.18-.41-.32-.77-.41s-.83-.15-1.43-.15h-2.17c-.32.12-.58.29-.77.52-.2.22-.3.48-.3.78,0,.34.21.66.63.95.42.29,1.11.44,2.06.44ZM339.47,179.04c.6,0,1.1-.18,1.51-.55.4-.37.6-.91.6-1.62,0-.75-.19-1.31-.56-1.67-.38-.37-.86-.55-1.46-.55s-1.12.19-1.51.57c-.4.38-.6.93-.6,1.65s.21,1.26.62,1.62c.41.37.88.55,1.41.55ZM342.87,174.52l-.95-1.21c.32-.85.81-1.42,1.47-1.73.66-.31,1.46-.47,2.4-.48v2.36c-.63,0-1.21.06-1.74.18-.53.12-.92.41-1.18.88Z"/>
  </g>
  <path class="cls-2" d="M71.32,314.39c.52.26,1.12.26,1.64,0l30.1-14.94c.91-.45,1.28-1.55.83-2.46-.45-.91-1.55-1.28-2.46-.83l-29.28,14.53-28.05-14.02v-32.67s28.1-16.93,28.1-16.93l29.17,15.94c.9.47,2.01.13,2.48-.77.46-.88.14-1.97-.72-2.46l-30.09-16.45c-.57-.31-1.27-.3-1.83.04l-29.89,18.01c-.55.33-.89.93-.89,1.57v34.84c0,.7.39,1.33,1.02,1.64l29.89,14.93Z"/>
  <path class="cls-2" d="M70.56,304.22c.42.2.91.2,1.33-.02l19.94-10.51,10.04,5.16c.73.36,1.61.07,1.97-.65.36-.72.08-1.59-.63-1.96l-8.27-4.25,8.32-4.63c.71-.4.96-1.29.57-2-.14-.24-.34-.44-.58-.58l-8.95-4.85,8.94-4.69c.72-.38,1-1.27.62-1.99-.14-.26-.35-.47-.61-.61l-8.9-4.75,8.91-4.85c.71-.39.98-1.28.59-1.99,0,0,0,0,0,0-.39-.71-1.28-.98-1.99-.59,0,0,0,0,0,0l-10.61,5.77-17.73-9.47c-.45-.24-.99-.23-1.43.03l-20.11,11.74c-.7.41-.94,1.31-.53,2.01.15.25.36.45.63.58l8.69,4.23-8.79,5.16c-.7.41-.93,1.31-.52,2.01.15.25.36.45.62.58l8.83,4.33-8.93,5.21c-.7.41-.94,1.31-.53,2.01.15.25.37.45.63.58l18.51,9h0ZM63.93,285.64l-8.14-3.98,17.04-10.01,26.65,14.43-7.69,4.28-18.31-9.5c-.45-.23-.98-.22-1.42.04l-8.13,4.74h0ZM88.64,292.04l-15.8-8.19-17.03,9.94,15.36,7.47,17.47-9.21ZM63.78,273.55l-7.97-3.88,17.03-9.94,26.56,14.19-8.23,4.31-17.66-9.57c-.45-.25-1-.24-1.44.02l-8.28,4.86h0Z"/>
  <g>
    <g>
      <polygon points="146.88 272.78 169.82 268.63 169.82 289.26 192.76 312.2 166.36 312.2 146.88 292.72 146.88 272.78"/>
      <polygon points="213.38 285.11 190.44 289.26 190.44 268.63 167.5 245.69 193.9 245.69 213.38 265.17 213.38 285.11"/>
    </g>
    <g>
      <g>
        <path d="M239.85,254.59c0,1.83-.34,3.36-1.02,4.6s-1.65,2.17-2.91,2.78c-1.26.61-2.77.93-4.52.93h-4.8s0-16.16,0-16.16h5.23c1.66,0,3.09.3,4.29.9,1.2.6,2.12,1.48,2.76,2.64.64,1.16.96,2.6.96,4.31h.01ZM236.79,254.68c0-1.25-.2-2.28-.59-3.11-.39-.81-.97-1.43-1.73-1.82-.76-.39-1.7-.6-2.82-.6h-2.11s0,11.3,0,11.3h1.73c1.85,0,3.24-.47,4.16-1.44.92-.96,1.37-2.4,1.37-4.33h-.01Z"/>
        <path d="M248.86,250.41c.23,0,.48,0,.74.03.27.02.48.06.65.1l-.29,2.68c-.19-.03-.39-.06-.63-.09-.23-.03-.49-.05-.75-.05-.39,0-.78.07-1.16.21s-.73.35-1.04.64c-.31.29-.57.65-.74,1.08-.19.43-.27.95-.27,1.55v6.36s-2.87,0-2.87,0v-12.29s2.21,0,2.21,0l.41,2.13h.14c.24-.44.54-.83.9-1.2.36-.36.78-.65,1.23-.85.46-.21.95-.3,1.48-.3h-.01Z"/>
        <path d="M256.78,250.41c1.1,0,2.05.22,2.85.66s1.41,1.08,1.84,1.9c.43.83.65,1.83.65,3.01v1.47s-8.09,0-8.09,0c.03,1.1.34,1.96.93,2.56s1.43.9,2.51.9c.76,0,1.46-.08,2.09-.23.61-.15,1.25-.37,1.9-.66v2.26c-.6.29-1.23.5-1.88.64-.65.14-1.44.21-2.35.21-1.19,0-2.25-.23-3.19-.7-.93-.46-1.66-1.16-2.18-2.1s-.78-2.1-.78-3.49.24-2.58.72-3.55,1.14-1.68,1.99-2.18c.86-.49,1.84-.74,2.98-.74v.02ZM256.83,252.53c-.79,0-1.41.24-1.89.74-.48.5-.75,1.22-.82,2.16h5.23c0-.57-.09-1.08-.27-1.51s-.45-.76-.82-1.02c-.37-.24-.85-.37-1.41-.37h-.01Z"/>
        <path d="M273.37,259.37c0,.79-.19,1.46-.57,2.02-.38.56-.94.98-1.68,1.29-.74.3-1.66.45-2.76.45-.86,0-1.61-.06-2.26-.19-.65-.12-1.25-.31-1.81-.57v-2.44c.6.29,1.27.52,2,.72.73.19,1.4.28,2.03.28.81,0,1.4-.12,1.76-.36s.54-.57.54-.97c0-.25-.08-.49-.24-.7s-.44-.41-.86-.63c-.42-.21-1-.46-1.75-.76s-1.39-.6-1.91-.92c-.52-.31-.92-.68-1.19-1.14-.27-.44-.41-1-.41-1.67,0-1.1.44-1.95,1.31-2.53.88-.58,2.03-.87,3.46-.87.76,0,1.49.08,2.17.23.67.15,1.33.38,1.98.68l-.86,2.04c-.56-.24-1.14-.44-1.73-.6-.59-.16-1.14-.24-1.63-.24-.64,0-1.12.09-1.46.29s-.51.46-.51.81c0,.27.08.5.24.7.16.19.46.38.88.58s1.01.44,1.76.73c.74.29,1.37.59,1.89.9.52.31.92.7,1.18,1.15.27.44.39,1.02.39,1.71h.01Z"/>
        <path d="M279.98,263.13c-1.41,0-2.57-.53-3.45-1.61-.88-1.07-1.32-2.65-1.32-4.73s.44-3.71,1.33-4.77c.89-1.07,2.06-1.61,3.51-1.61.6,0,1.12.08,1.58.24.44.16.83.37,1.17.65.34.27.61.58.83.9h.12c-.03-.24-.07-.58-.1-1.03-.03-.44-.06-.85-.06-1.19v-4.29s2.9,0,2.9,0v17.21s-2.24,0-2.24,0l-.54-1.61h-.12c-.23.34-.5.64-.82.92s-.72.5-1.18.67c-.46.16-1,.24-1.6.24h0ZM280.83,260.79c1.05,0,1.81-.3,2.24-.89.44-.59.66-1.51.66-2.72v-.36c0-1.31-.21-2.32-.63-3.02-.42-.71-1.18-1.05-2.29-1.05-.86,0-1.52.36-1.98,1.08s-.7,1.73-.7,3.02.23,2.28.7,2.95,1.12,1.01,2,1.01h0Z"/>
        <path d="M294.4,250.41c1.1,0,2.05.22,2.85.66s1.41,1.08,1.84,1.9c.43.83.65,1.83.65,3.01v1.47s-8.09,0-8.09,0c.03,1.1.34,1.96.93,2.56s1.43.9,2.51.9c.76,0,1.46-.08,2.09-.23.61-.15,1.25-.37,1.9-.66v2.26c-.6.29-1.23.5-1.88.64s-1.44.21-2.35.21c-1.19,0-2.25-.23-3.19-.7-.93-.46-1.66-1.16-2.18-2.1s-.78-2.1-.78-3.49.24-2.58.72-3.55,1.14-1.68,1.99-2.18c.86-.49,1.84-.74,2.98-.74v.02ZM294.45,252.53c-.79,0-1.41.24-1.89.74-.48.5-.75,1.22-.82,2.16h5.23c0-.57-.09-1.08-.27-1.51-.19-.43-.45-.76-.82-1.02-.37-.24-.85-.37-1.41-.37h-.01Z"/>
        <path d="M308.74,250.41c1.39,0,2.47.36,3.23,1.07.76.71,1.16,1.85,1.16,3.44v7.99s-2.85,0-2.85,0v-7.4c0-.94-.19-1.63-.56-2.1-.37-.46-.94-.7-1.71-.7-1.15,0-1.93.36-2.35,1.09s-.64,1.76-.64,3.13v5.98s-2.87,0-2.87,0v-12.28s2.21,0,2.21,0l.41,1.66h.14c.27-.42.6-.78,1-1.05s.82-.49,1.3-.63c.48-.14.98-.21,1.53-.21h.01Z"/>
      </g>
      <g>
        <path d="M239.54,281.82c0,1.11-.23,2.12-.71,3.02-.48.89-1.19,1.61-2.16,2.12-.96.52-2.19.78-3.66.78-2.1,0-3.68-.54-4.77-1.65-1.09-1.09-1.63-2.54-1.63-4.33v-10.4s2.9,0,2.9,0v10.1c0,1.31.3,2.27.9,2.89.6.61,1.49.92,2.69.92.85,0,1.53-.14,2.05-.43s.9-.72,1.16-1.3c.24-.58.37-1.27.37-2.1v-10.09s2.87,0,2.87,0v10.45s-.01.02-.01.02Z"/>
        <path d="M249.09,275.04c1.39,0,2.47.36,3.23,1.07s1.16,1.85,1.16,3.44v7.98s-2.85,0-2.85,0v-7.39c0-.94-.19-1.63-.56-2.1s-.94-.7-1.7-.7c-1.15,0-1.93.36-2.35,1.09-.42.72-.64,1.76-.64,3.12v5.97s-2.87,0-2.87,0v-12.26s2.21,0,2.21,0l.41,1.65h.14c.27-.42.6-.78,1-1.05.39-.28.82-.49,1.3-.63s.98-.21,1.53-.21v.02Z"/>
        <path d="M257.9,270.51c.42,0,.79.12,1.11.34.31.23.48.61.48,1.17s-.16.93-.48,1.17c-.31.23-.68.35-1.11.35-.45,0-.83-.12-1.15-.35-.31-.23-.46-.63-.46-1.17s.15-.95.46-1.17c.31-.23.7-.34,1.15-.34ZM259.31,275.26v12.26s-2.87,0-2.87,0v-12.26s2.87,0,2.87,0Z"/>
        <path d="M266.03,287.52l-4.66-12.26h3.04s2.4,7.24,2.4,7.24c.09.21.19.48.27.78.09.31.17.61.25.9s.13.56.15.78h.09c.03-.23.08-.49.17-.78.08-.29.17-.59.28-.89.1-.3.19-.57.24-.79l2.44-7.24h3.04s-4.68,12.26-4.68,12.26c0,0-3.04,0-3.04,0Z"/>
        <path d="M279.99,275.04c1.1,0,2.05.22,2.85.66s1.41,1.07,1.84,1.9c.43.83.65,1.83.65,3.01v1.47s-8.08,0-8.08,0c.03,1.1.34,1.96.93,2.56s1.43.9,2.51.9c.76,0,1.46-.07,2.09-.23.61-.15,1.25-.37,1.9-.66v2.26c-.6.29-1.23.5-1.88.64-.65.14-1.44.21-2.35.21-1.19,0-2.25-.23-3.17-.7s-1.65-1.16-2.17-2.1c-.52-.94-.78-2.1-.78-3.49s.23-2.58.71-3.53c.48-.96,1.14-1.68,1.99-2.17s1.84-.73,2.98-.73h-.02ZM280.03,277.16c-.79,0-1.41.24-1.89.74s-.75,1.22-.82,2.14h5.23c0-.57-.09-1.08-.27-1.51-.19-.43-.45-.76-.82-1.02-.37-.24-.85-.37-1.41-.37h-.01Z"/>
        <path d="M294.07,275.04c.23,0,.48,0,.73.03.27.02.48.06.65.1l-.29,2.66c-.19-.03-.39-.06-.63-.09-.23-.03-.49-.05-.75-.05-.39,0-.78.07-1.16.21s-.72.35-1.04.64c-.31.29-.57.65-.74,1.08-.19.43-.27.95-.27,1.55v6.35s-2.87,0-2.87,0v-12.26s2.21,0,2.21,0l.41,2.12h.14c.24-.44.54-.83.9-1.19s.78-.65,1.23-.85c.46-.21.95-.3,1.48-.3h0Z"/>
        <path d="M305.72,283.99c0,.79-.19,1.46-.57,2.02-.38.56-.94.98-1.67,1.29-.74.3-1.66.45-2.76.45-.86,0-1.61-.06-2.26-.19-.65-.12-1.25-.31-1.81-.57v-2.44c.6.29,1.27.52,2,.71.73.19,1.4.28,2.03.28.81,0,1.4-.12,1.76-.36.36-.24.54-.57.54-.97,0-.25-.08-.49-.23-.7-.16-.21-.44-.41-.86-.63-.42-.21-1-.46-1.75-.76s-1.39-.6-1.91-.92-.92-.68-1.18-1.14c-.27-.44-.41-1-.41-1.66,0-1.1.44-1.95,1.31-2.53s2.03-.87,3.46-.87c.76,0,1.48.08,2.16.23.67.15,1.33.38,1.98.68l-.86,2.04c-.56-.24-1.14-.44-1.71-.6-.59-.16-1.14-.23-1.63-.23-.64,0-1.12.09-1.46.29s-.51.46-.51.81c0,.27.08.5.24.7.16.19.46.38.88.58s1.01.44,1.76.72c.74.29,1.37.59,1.89.9s.92.7,1.17,1.15c.27.44.39,1.02.39,1.7h-.01Z"/>
        <path d="M309.68,270.51c.42,0,.79.12,1.11.34.31.23.48.61.48,1.17s-.16.93-.48,1.17c-.31.23-.68.35-1.11.35-.45,0-.83-.12-1.15-.35-.31-.23-.46-.63-.46-1.17s.15-.95.46-1.17c.31-.23.7-.34,1.15-.34ZM311.09,275.26v12.26s-2.87,0-2.87,0v-12.26s2.87,0,2.87,0Z"/>
        <path d="M319.54,285.46c.36,0,.71-.03,1.04-.1s.64-.15.93-.23v2.12c-.3.14-.7.25-1.17.35-.49.09-.98.15-1.52.15-.7,0-1.32-.12-1.89-.35s-1.02-.64-1.36-1.21-.51-1.37-.51-2.4v-6.37s-1.65,0-1.65,0v-1.24s1.81-1,1.81-1l.9-2.6h1.78s0,2.69,0,2.69h3.49s0,2.14,0,2.14h-3.49s0,6.35,0,6.35c0,.57.15,1,.45,1.27.3.28.7.42,1.17.42h0Z"/>
        <path d="M322.92,275.26h3.06s2.44,6.99,2.44,6.99c.1.29.21.58.29.87.09.29.17.58.23.87.07.29.13.56.17.81h.09c.06-.35.16-.75.3-1.2.14-.46.29-.9.44-1.34l2.35-6.99h3.01s-5.11,13.59-5.11,13.59c-.34.86-.71,1.6-1.15,2.2-.43.61-.95,1.08-1.58,1.4-.61.32-1.38.49-2.28.49-.38,0-.71-.02-.98-.06s-.52-.08-.71-.13v-2.26c.16.03.37.06.6.09.23.03.48.05.73.05.46,0,.86-.09,1.18-.28s.6-.44.82-.75c.23-.31.42-.68.57-1.09l.41-1.04-4.91-12.21h.01Z"/>
        <path d="M352.1,281.37c0,1.01-.14,1.91-.41,2.7s-.66,1.46-1.17,2.02c-.51.56-1.12.96-1.85,1.24-.73.28-1.55.42-2.46.42-.85,0-1.62-.14-2.33-.42s-1.32-.7-1.83-1.24-.92-1.22-1.2-2.02-.44-1.69-.44-2.7c0-1.37.23-2.53.71-3.46s1.15-1.65,2.03-2.13c.87-.49,1.92-.73,3.14-.73,1.15,0,2.16.24,3.02.73s1.55,1.21,2.05,2.13c.5.94.74,2.09.74,3.46h0ZM343.35,281.37c0,.85.1,1.58.3,2.2.21.63.52,1.1.95,1.44.43.34.98.5,1.66.5s1.23-.16,1.66-.5.74-.81.94-1.44.29-1.36.29-2.2-.1-1.61-.3-2.21c-.21-.6-.52-1.07-.94-1.39s-.98-.49-1.67-.49c-1.01,0-1.75.36-2.2,1.08-.46.72-.7,1.73-.7,3.02h.01Z"/>
        <path d="M361.22,277.42h-2.97s0,10.1,0,10.1h-2.85s0-10.1,0-10.1h-1.97s0-1.36,0-1.36l1.97-.81v-.83c0-1.05.16-1.89.5-2.49s.81-1.03,1.45-1.3c.64-.27,1.38-.39,2.24-.39.6,0,1.15.05,1.63.15.49.09.88.21,1.19.32l-.72,2.12c-.25-.07-.54-.15-.85-.22-.31-.07-.65-.1-1.01-.1-.54,0-.94.17-1.19.52-.25.35-.38.83-.38,1.45v.79s2.97,0,2.97,0v2.14s-.01.01-.01.01Z"/>
      </g>
      <g>
        <path d="M244.88,299.67c1.1,0,2.05.22,2.85.66s1.41,1.07,1.84,1.9c.43.83.65,1.83.65,3.01v1.47s-8.08,0-8.08,0c.03,1.1.34,1.96.93,2.56s1.43.9,2.51.9c.76,0,1.46-.07,2.09-.23.61-.15,1.25-.37,1.9-.66v2.26c-.6.29-1.23.5-1.88.64-.65.14-1.44.21-2.35.21-1.19,0-2.25-.23-3.17-.7s-1.65-1.16-2.17-2.1c-.52-.94-.78-2.1-.78-3.49s.23-2.58.71-3.53c.48-.96,1.14-1.68,1.99-2.17s1.84-.73,2.98-.73h-.02ZM244.93,301.79c-.79,0-1.41.24-1.89.74-.48.5-.75,1.22-.82,2.14h5.23c0-.57-.09-1.08-.27-1.51-.19-.43-.45-.76-.82-1.02-.37-.24-.85-.37-1.41-.37h-.01Z"/>
        <path d="M257.94,312.39c-1.15,0-2.16-.22-3.04-.67-.87-.44-1.55-1.14-2.05-2.06-.49-.93-.73-2.12-.73-3.56s.27-2.73.79-3.67c.53-.94,1.24-1.63,2.14-2.09.9-.44,1.93-.67,3.07-.67.68,0,1.32.07,1.95.21.61.14,1.15.31,1.59.54l-.86,2.24c-.41-.16-.85-.31-1.31-.44-.46-.13-.93-.2-1.38-.2-.66,0-1.23.15-1.68.45-.46.3-.8.75-1.03,1.34s-.34,1.34-.34,2.25.12,1.59.35,2.17c.23.59.57,1.03,1.02,1.32.44.29.98.44,1.62.44s1.25-.08,1.8-.23c.54-.16,1.07-.37,1.55-.63v2.4c-.45.25-.95.46-1.51.61-.56.15-1.21.23-1.96.23h0Z"/>
        <path d="M266.91,299.01c0,.53-.01,1.01-.05,1.44-.03.43-.06.78-.09,1.05h.16c.25-.42.57-.76.95-1.03s.8-.46,1.25-.6c.46-.14.94-.21,1.44-.21.92,0,1.71.16,2.38.48s1.17.8,1.53,1.46.53,1.51.53,2.57v7.98s-2.87,0-2.87,0v-7.39c0-.94-.19-1.63-.54-2.1s-.93-.7-1.69-.7-1.34.16-1.78.5-.74.81-.93,1.43-.27,1.38-.27,2.28v5.97s-2.87,0-2.87,0v-17.18s2.87,0,2.87,0v4.04s-.01.01-.01.01Z"/>
        <path d="M284.54,299.68c1.39,0,2.47.36,3.23,1.07.76.71,1.16,1.85,1.16,3.44v7.98s-2.85,0-2.85,0v-7.39c0-.94-.19-1.63-.56-2.1s-.94-.7-1.7-.7c-1.15,0-1.93.36-2.35,1.09-.42.72-.64,1.76-.64,3.12v5.97s-2.87,0-2.87,0v-12.26s2.21,0,2.21,0l.41,1.65h.14c.27-.42.6-.78,1-1.05.39-.28.82-.49,1.3-.63.48-.14.98-.21,1.53-.21v.02Z"/>
        <path d="M302.84,306c0,1.01-.14,1.91-.41,2.7s-.66,1.46-1.17,2.02c-.51.56-1.12.96-1.85,1.24-.73.28-1.55.42-2.46.42-.85,0-1.62-.14-2.33-.42-.71-.28-1.32-.7-1.83-1.24s-.92-1.22-1.2-2.02-.44-1.69-.44-2.7c0-1.37.23-2.53.71-3.46s1.15-1.65,2.03-2.13c.87-.49,1.92-.73,3.14-.73,1.15,0,2.16.24,3.02.73.87.49,1.55,1.21,2.05,2.13.5.94.74,2.09.74,3.46ZM294.08,306c0,.85.1,1.58.3,2.2.21.63.52,1.1.95,1.44.43.34.98.5,1.66.5s1.23-.16,1.66-.5.74-.81.94-1.44.29-1.36.29-2.2-.1-1.61-.3-2.21c-.21-.6-.52-1.07-.94-1.39-.42-.32-.98-.49-1.67-.49-1.01,0-1.75.36-2.2,1.08-.46.72-.7,1.73-.7,3.02h.01Z"/>
        <path d="M307.86,312.15h-2.87s0-17.18,0-17.18h2.87s0,17.18,0,17.18Z"/>
        <path d="M321.91,306c0,1.01-.14,1.91-.41,2.7s-.66,1.46-1.17,2.02c-.51.56-1.12.96-1.85,1.24-.73.28-1.55.42-2.46.42-.85,0-1.62-.14-2.33-.42s-1.32-.7-1.83-1.24-.92-1.22-1.2-2.02-.44-1.69-.44-2.7c0-1.37.23-2.53.71-3.46s1.15-1.65,2.03-2.13c.87-.49,1.92-.73,3.14-.73,1.15,0,2.16.24,3.02.73.87.49,1.55,1.21,2.05,2.13.5.94.74,2.09.74,3.46h0ZM313.16,306c0,.85.1,1.58.3,2.2.21.63.52,1.1.95,1.44.43.34.98.5,1.66.5s1.23-.16,1.66-.5.74-.81.94-1.44.29-1.36.29-2.2-.1-1.61-.3-2.21c-.21-.6-.52-1.07-.94-1.39-.42-.32-.98-.49-1.67-.49-1.01,0-1.75.36-2.2,1.08-.46.72-.7,1.73-.7,3.02h.01Z"/>
        <path d="M328.59,299.68c.83,0,1.54.15,2.13.46s1.1.75,1.51,1.32h.12s.29-1.56.29-1.56h2.4s0,12.4,0,12.4c0,1.16-.22,2.13-.65,2.92s-1.08,1.38-1.95,1.77-1.97.6-3.31.6c-.92,0-1.75-.06-2.5-.19-.74-.12-1.44-.31-2.07-.57v-2.51c.65.3,1.33.53,2.07.71.73.16,1.55.24,2.48.24.98,0,1.74-.24,2.26-.74.53-.5.79-1.19.79-2.09v-.36c0-.2,0-.45.03-.75.02-.31.05-.57.06-.78h-.09c-.38.57-.86,1.02-1.45,1.34s-1.31.49-2.14.49c-1.48,0-2.64-.54-3.51-1.65-.86-1.1-1.29-2.66-1.29-4.68s.43-3.57,1.3-4.69,2.04-1.68,3.52-1.68h.01ZM329.38,301.98c-.57,0-1.05.16-1.46.48-.39.31-.71.78-.9,1.39-.21.61-.3,1.36-.3,2.22,0,1.34.23,2.35.7,3.02.46.67,1.14,1.01,2.03,1.01.51,0,.95-.07,1.31-.22.36-.14.66-.36.89-.66.23-.29.41-.67.52-1.12.12-.45.17-.98.17-1.61v-.5c0-.92-.1-1.68-.3-2.27-.21-.59-.52-1.03-.95-1.32-.43-.29-1-.43-1.68-.43h-.02Z"/>
        <path d="M336.82,299.9h3.06s2.44,6.99,2.44,6.99c.1.29.21.58.29.87.09.29.17.58.23.87.07.29.13.56.17.81h.09c.06-.35.16-.75.3-1.2.14-.46.29-.9.44-1.34l2.35-6.99h3.01s-5.11,13.59-5.11,13.59c-.34.86-.71,1.6-1.15,2.2-.43.61-.95,1.08-1.58,1.4-.61.32-1.38.49-2.28.49-.38,0-.71-.02-.98-.06s-.52-.08-.71-.13v-2.26c.16.03.37.06.6.09.23.03.48.05.73.05.46,0,.86-.09,1.18-.28s.6-.44.82-.75.42-.68.57-1.09l.41-1.04-4.91-12.21h.01Z"/>
        <path d="M234.55,312.18h-2.92s0-13.7,0-13.7h-5.02s0-2.47,0-2.47h12.97s0,2.47,0,2.47h-5.02s0,13.7,0,13.7h-.01Z"/>
      </g>
    </g>
  </g>
  <g id="Layer_1-2" data-name="Layer 1">
    <polyline class="cls-3" points="410.42 312.4 478.15 312.4 544.43 246.11 410.42 246.11 410.42 312.4"/>
    <path class="cls-1" d="M489.95,258.58h-13.19s0,31.36,0,31.36l-11.52-31.36h-11.43s-9.84,26.23-9.84,26.23c-1.05-6.61-7.89-8.9-13.27-10.61-3.55-1.14-7.32-2.82-7.29-4.68.03-1.52,2.02-2.94,5.97-2.72,2.65.14,5,.35,9.65,2.6l4.58-7.98c-4.25-2.16-10.13-3.53-14.94-3.54h-.03c-5.61,0-10.29,1.82-13.19,4.82-2.02,2.09-3.11,4.75-3.16,7.69-.07,4.05,1.41,6.92,4.53,9.21,2.63,1.93,6,3.18,8.97,4.1,3.66,1.13,6.65,2.12,6.62,4.23-.03.77-.32,1.48-.87,2.06-.91.94-2.31,1.3-4.25,1.33-3.74.08-6.51-.51-10.92-3.11l-4.07,8.09c4.4,2.5,9.61,3.97,14.93,3.97h.68c4.63-.09,8.37-1.41,11.35-3.81.17-.14.33-.27.48-.41l-1.32,3.53h11.98s2.01-6.12,2.01-6.12c2.1.72,4.5,1.12,7.04,1.12s4.81-.38,6.87-1.06l1.94,6.06h19.54s0-12.66,0-12.66h4.26c10.3,0,16.4-5.25,16.4-14.04,0-9.79-5.92-14.29-18.53-14.29h0ZM459.46,285.41c-1.54,0-2.98-.27-4.23-.74l4.18-13.19h.08s4.11,13.23,4.11,13.23c-1.24.44-2.64.7-4.14.7h0ZM490.72,277.84h-2.91s0-10.63,0-10.63h2.91c3.88,0,6.97,1.29,6.97,5.24s-3.09,5.39-6.97,5.38"/>
  </g>
  <line class="cls-6" y1="78.2" x2="369.36" y2="78.2"/>
  <path class="cls-7" d="M710.24,383.16c-1.08,0-2.04.49-2.69,1.25-.06-.08-.13-.14-.19-.21-.2-.2-.43-.38-.67-.52-.56-.34-1.2-.51-1.83-.51h0c-.9,0-1.81.35-2.5,1.04-.69.69-1.04,1.6-1.04,2.5,0,.63.17,1.27.51,1.83.14.24.32.46.52.67.2.2.43.38.67.52,1.36.83,3.17.65,4.34-.52.07-.07.14-.14.19-.21.65.76,1.61,1.25,2.69,1.25,1.95,0,3.54-1.59,3.54-3.54s-1.59-3.54-3.54-3.54h0ZM702.99,386.7c0-.47.18-.95.54-1.31.36-.36.84-.54,1.31-.54h0c.19,0,.39.03.57.09l-1.46,1.46-.87.87c-.06-.19-.09-.38-.09-.57ZM706.16,388.01c-.51.51-1.24.66-1.88.46l.9-.9,1.43-1.43.17-.17c-.05.24-.08.49-.08.74,0,.47-.18.95-.54,1.31h0ZM710.24,388.56c-1.02,0-1.86-.83-1.86-1.86s.83-1.86,1.86-1.86,1.86.83,1.86,1.86-.83,1.86-1.86,1.86Z"/>
  <polygon class="cls-7" points="698.55 386.1 695.08 380.71 693.05 380.71 693.05 390.18 695.08 390.18 695.08 384.25 698.87 390.18 700.59 390.18 700.59 380.71 698.55 380.71 698.55 386.1"/>
  <polygon class="cls-5" points="720.45 386.1 716.97 380.71 714.95 380.71 714.95 390.18 716.97 390.18 716.97 384.25 720.76 390.18 722.48 390.18 722.48 380.71 720.45 380.71 720.45 386.1"/>
  <path class="cls-5" d="M728.5,383.7c-.51-.31-1.09-.46-1.74-.46s-1.29.15-1.82.46c-.53.3-.95.73-1.24,1.26-.3.53-.45,1.13-.45,1.78s.15,1.25.46,1.78c.3.53.73.95,1.27,1.26s1.18.46,1.91.46,1.21-.12,1.7-.36c.49-.24.89-.58,1.21-1.04l-1.44-.85c-.15.19-.35.35-.62.46-.26.12-.53.18-.8.18-.46,0-.82-.1-1.11-.3-.29-.2-.51-.51-.68-.91h4.93c.03-.2.05-.43.05-.68,0-.65-.14-1.24-.42-1.77-.29-.53-.68-.95-1.19-1.27h-.03ZM725.1,385.94c.02-.3.19-.54.51-.75s.7-.31,1.13-.31.77.09,1.06.28.46.45.52.79h-3.22,0Z"/>
  <path class="cls-5" d="M736.81,383.7c-.51-.3-1.11-.46-1.82-.46s-.73.06-1.07.19c-.35.12-.67.3-.97.52v-.52h-1.93v9.47h1.93v-3.21c.3.23.62.4.97.52.35.12.71.19,1.07.19.7,0,1.31-.15,1.82-.46.51-.31.9-.73,1.17-1.27s.41-1.16.41-1.84-.14-1.3-.41-1.83c-.27-.54-.66-.96-1.17-1.27v-.03ZM735.97,388.03c-.32.31-.73.46-1.24.46s-.94-.15-1.27-.46-.51-.72-.51-1.22.17-.92.51-1.24.77-.49,1.27-.49.92.16,1.24.47c.32.31.48.73.48,1.24s-.16.93-.48,1.24h0Z"/>
  <path class="cls-5" d="M743.87,383.53c-.41-.17-.79-.25-1.18-.25-.57,0-1.11.21-1.61.62v-3.19h-1.93v9.47h1.93v-4.14c.05-.37.19-.64.39-.82.21-.18.45-.26.73-.26s.62.09.87.29c.24.19.36.51.36.94v3.99h1.93v-4.04c0-.72-.16-1.29-.46-1.72-.3-.42-.64-.72-1.04-.89Z"/>
  <path class="cls-5" d="M751.36,383.7c-.53-.31-1.11-.47-1.74-.47s-1.22.16-1.76.47-.96.73-1.27,1.27c-.31.53-.47,1.12-.47,1.76s.16,1.21.47,1.75c.31.54.73.96,1.27,1.27.53.31,1.12.47,1.76.47s1.21-.16,1.74-.47.95-.74,1.27-1.27c.31-.54.47-1.12.47-1.75s-.16-1.22-.47-1.76c-.31-.53-.73-.95-1.27-1.27ZM750.75,387.87c-.32.31-.7.47-1.14.47s-.82-.16-1.13-.47-.47-.69-.47-1.13.16-.82.47-1.14c.31-.32.69-.47,1.13-.47s.82.16,1.14.47c.32.32.47.7.47,1.14s-.16.82-.47,1.13Z"/>
  <path class="cls-5" d="M759.36,386.84c-.26-.3-.57-.51-.9-.63-.35-.13-.78-.24-1.3-.35-.41-.08-.7-.16-.89-.23-.19-.08-.28-.19-.28-.34s.08-.3.23-.41.35-.15.61-.15.52.05.71.16c.18.11.32.27.43.49l1.54-.75c-.26-.45-.63-.79-1.1-1.03s-1-.35-1.58-.35-.95.08-1.37.25c-.42.17-.75.41-1,.73-.24.32-.37.7-.37,1.13s.13.81.37,1.08c.24.27.54.46.89.6.35.13.78.25,1.28.36.45.1.78.19.99.28s.31.22.31.4-.11.36-.34.47c-.23.11-.49.17-.79.17-.73,0-1.21-.28-1.42-.84l-1.55.79c.25.51.63.89,1.14,1.16s1.11.39,1.83.39,1-.08,1.46-.24c.45-.16.81-.41,1.09-.73.27-.32.41-.71.41-1.16s-.13-.93-.39-1.22l-.03-.03Z"/>
  <rect class="cls-4" y="395.27" width="764" height="4.73"/>
</svg>