<?xml version="1.0" encoding="UTF-8"?>
<svg id="a" data-name="Layer 1" xmlns="http://www.w3.org/2000/svg" width="1400" height="490" xmlns:xlink="http://www.w3.org/1999/xlink" viewBox="0 0 1400 490">
  <defs>
    <linearGradient id="b" x1="0" y1="483.26" x2="1400.01" y2="483.26" gradientUnits="userSpaceOnUse">
      <stop offset="0" stop-color="#0f6bff"/>
      <stop offset="1" stop-color="#000025"/>
    </linearGradient>
    <linearGradient id="c" x1="72.74" y1="172.8" x2="1134.5" y2="172.8" gradientTransform="translate(-5.36)" gradientUnits="userSpaceOnUse">
      <stop offset="0" stop-color="#000"/>
      <stop offset=".56" stop-color="#0a0a0a" stop-opacity=".96"/>
      <stop offset="1" stop-color="#fff" stop-opacity="0"/>
    </linearGradient>
    <clipPath id="d">
      <rect x="1508.68" width="1400" height="490" fill="none"/>
    </clipPath>
    <clipPath id="e">
      <rect x="-3761" y="-6770.19" width="200" height="59.98" fill="none"/>
    </clipPath>
  </defs>
  <rect width="1400" height="490" fill="#fff"/>
  <text transform="translate(150.16 419.13)" font-family="Aptos-SemiBold, Aptos" font-weight="600"><tspan x="0" y="0" font-size="45" letter-spacing="-.04em">T</tspan><tspan x="20.14" y="0" font-size="45" letter-spacing="0em">u</tspan><tspan x="45.38" y="0" font-size="45" letter-spacing="-.01em">e</tspan><tspan x="69.12" y="0" font-size="45" letter-spacing="-.02em">s</tspan><tspan x="90.93" y="0" font-size="45" letter-spacing="0em">d</tspan><tspan x="116.32" y="0" font-size="45" letter-spacing="-.01em">a</tspan><tspan x="140.17" y="0" font-size="45" letter-spacing="-.08em">y</tspan><tspan x="157.87" y="0" font-size="45" letter-spacing="0em">, Ma</tspan><tspan x="239.18" y="0" font-size="45" letter-spacing="-.02em">r</tspan><tspan x="254.02" y="0" font-size="45" letter-spacing="0em">ch 17th; 10:00 am</tspan><tspan x="599.01" y="1.64" font-size="50" letter-spacing="0em"> </tspan><tspan x="608.92" y="0" font-size="45" letter-spacing="-.08em">–</tspan><tspan x="626.05" y="0" font-size="45" letter-spacing="0em">11:30 am C</tspan><tspan x="844.64" y="0" font-size="45" letter-spacing="-.01em">E</tspan><tspan x="869.55" y="0" font-size="45" letter-spacing="0em">T</tspan></text>
  <text/>
  <text/>
  <text transform="translate(71.54 150.49)" font-family="Aptos-Bold, Aptos" font-size="70" font-weight="700"><tspan x="0" y="0">Meeting </tspan><tspan x="269.51" y="0" letter-spacing=".01em">S</tspan><tspan x="312.16" y="0">eri</tspan><tspan x="395.7" y="0" letter-spacing="0em">e</tspan><tspan x="434.29" y="0">s #5</tspan></text>
  <rect x="84.68" y="378.13" width="52.09" height="44.14" rx="3.22" ry="3.22" fill="none" stroke="#333" stroke-miterlimit="10" stroke-width="4"/>
  <rect x="84.98" y="378.9" width="52.09" height="9.4" fill="#333"/>
  <rect x="0" y="476.52" width="1400.01" height="13.48" fill="url(#b)"/>
  <path d="M65.74,22.65c-3.15,0-5.96,1.43-7.86,3.65-.17-.22-.37-.42-.57-.62-.59-.59-1.26-1.11-1.95-1.53-1.63-.99-3.5-1.48-5.35-1.5h0c-2.64,0-5.3,1.01-7.3,3.03-2.02,2.02-3.03,4.66-3.03,7.3,0,1.85.49,3.72,1.48,5.35.42.69.94,1.36,1.53,1.95.59.59,1.26,1.11,1.95,1.53,3.97,2.42,9.24,1.9,12.67-1.53.2-.2.39-.42.57-.62,1.9,2.22,4.71,3.65,7.86,3.65,5.69,0,10.33-4.63,10.33-10.33s-4.63-10.33-10.33-10.33h0ZM44.59,32.98c0-1.38.52-2.76,1.58-3.82,1.06-1.06,2.44-1.58,3.82-1.58h0c.57,0,1.13.1,1.68.27l-4.26,4.26-2.54,2.54c-.17-.54-.27-1.11-.27-1.68ZM53.83,36.8c-1.48,1.48-3.62,1.92-5.5,1.33l2.64-2.64,4.17-4.17.49-.49c-.15.69-.22,1.43-.22,2.17,0,1.38-.52,2.76-1.58,3.82v-.02ZM65.74,38.4c-2.98,0-5.42-2.42-5.42-5.42s2.42-5.42,5.42-5.42c3.01,0,5.42,2.42,5.42,5.42s-2.42,5.42-5.42,5.42Z" fill="#333"/>
  <polygon points="31.62 31.23 21.47 15.48 15.55 15.48 15.55 43.14 21.47 43.14 21.47 25.83 32.54 43.14 37.56 43.14 37.56 15.48 31.62 15.48 31.62 31.23" fill="#333"/>
  <polygon points="95.56 31.23 85.4 15.48 79.49 15.48 79.49 43.14 85.4 43.14 85.4 25.83 96.47 43.14 101.47 43.14 101.47 15.48 95.56 15.48 95.56 31.23" fill="#0f6bff"/>
  <path d="M119.05,24.23c-1.48-.91-3.18-1.36-5.08-1.36s-3.77.44-5.32,1.33c-1.55.89-2.76,2.12-3.62,3.67-.86,1.55-1.31,3.3-1.31,5.2,0,1.9.44,3.65,1.33,5.2.89,1.55,2.12,2.79,3.72,3.67s3.45,1.33,5.57,1.33,3.52-.35,4.95-1.06c1.43-.69,2.61-1.7,3.52-3.03l-4.19-2.49c-.44.57-1.04,1.04-1.8,1.36-.76.35-1.55.52-2.34.52-1.33,0-2.39-.3-3.23-.86-.84-.59-1.48-1.48-1.97-2.66h14.39c.1-.59.15-1.26.15-1.97,0-1.9-.42-3.62-1.23-5.18-.84-1.55-2-2.79-3.48-3.7l-.07.02ZM109.14,30.76c.05-.86.54-1.58,1.48-2.19.94-.62,2.05-.91,3.3-.91s2.24.27,3.08.81,1.36,1.31,1.53,2.29h-9.42s.02,0,.02,0Z" fill="#0f6bff"/>
  <path d="M143.32,24.21c-1.48-.89-3.25-1.33-5.32-1.33s-2.12.17-3.13.54c-1.01.35-1.95.86-2.83,1.53v-1.53h-5.64s0,27.65,0,27.65h5.64v-9.37c.86.67,1.82,1.16,2.83,1.53,1.04.35,2.07.54,3.13.54,2.05,0,3.82-.44,5.32-1.36,1.48-.91,2.64-2.14,3.43-3.72s1.18-3.38,1.18-5.37-.39-3.8-1.18-5.35c-.79-1.58-1.92-2.81-3.43-3.7v-.07ZM140.86,36.87c-.94.91-2.14,1.36-3.62,1.36s-2.74-.44-3.72-1.36-1.48-2.09-1.48-3.57.49-2.69,1.5-3.62c1.01-.94,2.24-1.43,3.72-1.43s2.69.47,3.62,1.38c.94.91,1.4,2.14,1.4,3.62s-.47,2.71-1.4,3.62h-.02Z" fill="#0f6bff"/>
  <path d="M163.93,23.71c-1.18-.49-2.32-.74-3.45-.74-1.68,0-3.25.62-4.71,1.82v-9.32h-5.64s0,27.65,0,27.65h5.64v-12.08c.15-1.08.54-1.87,1.13-2.39.62-.52,1.31-.76,2.14-.76s1.82.27,2.54.84c.71.57,1.06,1.48,1.06,2.74v11.66h5.64v-11.81c-.02-2.09-.47-3.77-1.33-5.03-.86-1.23-1.87-2.09-3.03-2.59Z" fill="#0f6bff"/>
  <path d="M185.81,24.23c-1.55-.91-3.25-1.38-5.08-1.38s-3.57.47-5.13,1.38-2.81,2.14-3.72,3.72c-.91,1.55-1.38,3.28-1.38,5.13,0,1.85.47,3.52,1.38,5.1.91,1.58,2.14,2.81,3.72,3.72,1.55.91,3.28,1.38,5.13,1.38s3.52-.47,5.08-1.38,2.79-2.17,3.72-3.72c.91-1.58,1.38-3.28,1.38-5.1,0-1.82-.47-3.57-1.38-5.13-.91-1.55-2.14-2.79-3.72-3.72ZM184.02,36.38c-.94.91-2.05,1.38-3.33,1.38s-2.39-.47-3.3-1.38-1.38-2.02-1.38-3.3.47-2.39,1.38-3.33c.91-.94,2.02-1.38,3.3-1.38s2.39.47,3.33,1.38c.94.94,1.38,2.05,1.38,3.33s-.47,2.39-1.38,3.3Z" fill="#0f6bff"/>
  <path d="M209.16,33.4c-.76-.86-1.65-1.48-2.64-1.85-1.01-.37-2.27-.71-3.8-1.04-1.18-.22-2.05-.47-2.59-.67-.54-.22-.81-.54-.81-.99s.22-.89.67-1.18,1.04-.44,1.77-.44,1.53.15,2.07.47c.52.32.94.79,1.26,1.43l4.49-2.19c-.76-1.31-1.85-2.32-3.2-3.01s-2.91-1.04-4.61-1.04-2.79.25-3.99.74c-1.23.49-2.19,1.21-2.91,2.14-.71.94-1.08,2.05-1.08,3.3s.37,2.37,1.08,3.15c.71.79,1.58,1.36,2.59,1.75,1.01.37,2.27.74,3.75,1.06,1.31.3,2.27.57,2.88.81s.91.64.91,1.16-.32,1.06-.99,1.38c-.67.32-1.43.49-2.29.49-2.14,0-3.52-.81-4.14-2.46l-4.54,2.32c.74,1.5,1.85,2.61,3.33,3.38s3.25,1.13,5.35,1.13,2.93-.25,4.26-.71c1.31-.47,2.37-1.18,3.18-2.12.79-.94,1.21-2.07,1.21-3.38,0-1.31-.37-2.71-1.13-3.57l-.07-.07Z" fill="#0f6bff"/>
  <text transform="translate(73.54 229.32)" font-size="50"><tspan font-family="Aptos, Aptos"><tspan x="0" y="0">I</tspan><tspan x="13.01" y="0" letter-spacing="0em">P</tspan><tspan x="41.43" y="0">CEI</tspan><tspan x="116.87" y="0" letter-spacing="0em">-</tspan><tspan x="134.13" y="0">CIS </tspan><tspan x="220.21" y="0" letter-spacing="-.02em">W</tspan><tspan x="263.57" y="0">or</tspan><tspan x="307.89" y="0" letter-spacing="-.01em">k</tspan><tspan x="331.54" y="0" letter-spacing="0em">s</tspan><tspan x="355.54" y="0">t</tspan><tspan x="371.7" y="0" letter-spacing="-.01em">r</tspan><tspan x="387.74" y="0">eam 2 </tspan></tspan><tspan x="0" y="52" font-family="Aptos-Bold, Aptos" font-weight="700">Mu</tspan><tspan x="70.12" y="52" font-family="Aptos-Bold, Aptos" font-weight="700" letter-spacing="0em">l</tspan><tspan x="84.67" y="52" font-family="Aptos-Bold, Aptos" font-weight="700">ti Clu</tspan><tspan x="205.2" y="52" font-family="Aptos-Bold, Aptos" font-weight="700" letter-spacing="0em">s</tspan><tspan x="230.57" y="52" font-family="Aptos-Bold, Aptos" font-weight="700" letter-spacing="0em">t</tspan><tspan x="248.1" y="52" font-family="Aptos-Bold, Aptos" font-weight="700">er </tspan><tspan x="304.52" y="52" font-family="Aptos-Bold, Aptos" font-weight="700" letter-spacing="-.03em">K</tspan><tspan x="334.35" y="52" font-family="Aptos-Bold, Aptos" font-weight="700">uberne</tspan><tspan x="495.78" y="52" font-family="Aptos-Bold, Aptos" font-weight="700" letter-spacing="0em">te</tspan><tspan x="540.87" y="52" font-family="Aptos-Bold, Aptos" font-weight="700">s </tspan><tspan x="576.81" y="52" font-family="Aptos, Aptos">(MCK)</tspan><tspan x="708.64" y="52" font-family="Aptos-Bold, Aptos" font-weight="700"> </tspan></text>
  <line x1="67.54" y1="172.8" x2="1131.59" y2="172.8" fill="none" stroke="url(#c)" stroke-miterlimit="10" stroke-width="3"/>
  <text transform="translate(1538.14 172.63)" font-family="Aptos-Bold, Aptos" font-size="65" font-weight="700"><tspan x="0" y="0">Open </tspan><tspan x="173.04" y="0" letter-spacing=".01em">S</tspan><tspan x="212.65" y="0" letter-spacing="0em">o</tspan><tspan x="249.37" y="0">u</tspan><tspan x="287.17" y="0" letter-spacing="-.01em">r</tspan><tspan x="310.43" y="0">ce </tspan><tspan x="395.46" y="0" letter-spacing=".01em">S</tspan><tspan x="435.07" y="0" letter-spacing="0em">eri</tspan><tspan x="512.64" y="0" letter-spacing="0em">e</tspan><tspan x="548.47" y="0">s</tspan></text>
  <g clip-path="url(#d)">
    <text transform="translate(129.02 414.18)" font-family="Aptos-SemiBold, Aptos" font-size="45" font-weight="600"><tspan x="0" y="0" letter-spacing="-.04em">T</tspan><tspan x="20.14" y="0" letter-spacing="0em">u</tspan><tspan x="45.38" y="0" letter-spacing="-.01em">e</tspan><tspan x="69.12" y="0" letter-spacing="-.02em">s</tspan><tspan x="90.93" y="0" letter-spacing="0em">d</tspan><tspan x="116.32" y="0" letter-spacing="-.01em">a</tspan><tspan x="140.17" y="0" letter-spacing="-.08em">y</tspan><tspan x="157.87" y="0" letter-spacing="0em">, </tspan><tspan x="179.39" y="0" letter-spacing="-.02em">F</tspan><tspan x="202.38" y="0" letter-spacing="0em">ebr</tspan><tspan x="267.17" y="0" letter-spacing="-.01em">u</tspan><tspan x="292.19" y="0" letter-spacing="0em">a</tspan><tspan x="316.15" y="0" letter-spacing="0em">r</tspan><tspan x="332.25" y="0" letter-spacing="0em">y 17th; 10:00 am</tspan><tspan x="649.32" y="0" letter-spacing="-.08em">–</tspan><tspan x="666.45" y="0" letter-spacing="0em">11:30 am C</tspan><tspan x="885.05" y="0" letter-spacing="-.01em">E</tspan><tspan x="909.95" y="0" letter-spacing="0em">T</tspan></text>
  </g>
  <text transform="translate(34.1 -1166.12)" font-family="Aptos-Bold, Aptos" font-size="80" font-weight="700"><tspan x="0" y="0">Meeting </tspan><tspan x="308.01" y="0" letter-spacing=".01em">S</tspan><tspan x="356.76" y="0">eri</tspan><tspan x="452.23" y="0" letter-spacing="0em">e</tspan><tspan x="496.33" y="0">s #4</tspan></text>
  <rect x="93.3" y="370" width="7.09" height="14.2" rx="3.06" ry="3.06" transform="translate(193.69 754.2) rotate(180)" fill="#333"/>
  <rect x="93.2" y="370" width="7.09" height="14.2" rx="3.06" ry="3.06" transform="translate(193.49 754.2) rotate(180)" fill="none" stroke="#e6e6e6" stroke-miterlimit="10" stroke-width="2"/>
  <rect x="120.79" y="370" width="7.09" height="14.2" rx="3.06" ry="3.06" transform="translate(248.67 754.2) rotate(180)" fill="#333"/>
  <rect x="120.69" y="370" width="7.09" height="14.2" rx="3.06" ry="3.06" transform="translate(248.47 754.2) rotate(180)" fill="none" stroke="#e6e6e6" stroke-miterlimit="10" stroke-width="2"/>
  <rect x="111.67" y="393.52" width="7.16" height="6.35" rx=".26" ry=".26" fill="#333"/>
  <rect x="121.87" y="393.52" width="7.16" height="6.35" rx=".26" ry=".26" fill="#333"/>
  <rect x="111.67" y="402.41" width="7.16" height="6.35" rx=".26" ry=".26" fill="#333"/>
  <rect x="121.87" y="402.41" width="7.16" height="6.35" rx=".26" ry=".26" fill="#333"/>
  <rect x="111.67" y="411.31" width="7.16" height="6.35" rx=".26" ry=".26" fill="#333"/>
  <rect x="121.87" y="411.31" width="7.16" height="6.35" rx=".26" ry=".26" fill="#333"/>
  <rect x="91.33" y="402.41" width="7.16" height="6.35" rx=".26" ry=".26" fill="#333"/>
  <rect x="101.54" y="402.41" width="7.16" height="6.35" rx=".26" ry=".26" fill="#333"/>
  <rect x="91.33" y="411.31" width="7.16" height="6.35" rx=".26" ry=".26" fill="#333"/>
  <rect x="101.54" y="411.31" width="7.16" height="6.35" rx=".26" ry=".26" fill="#333"/>
  <text transform="translate(692.5 5142.62)" fill="#1a1a1a" font-family="Aptos-Bold, Aptos" font-size="80" font-weight="700"><tspan x="0" y="0" letter-spacing="0em">K</tspan><tspan x="49.18" y="0" letter-spacing="0em">a</tspan><tspan x="92.81" y="0" letter-spacing="0em">t</tspan><tspan x="121.13" y="0">alis</tspan></text>
  <g clip-path="url(#e)">
    <text transform="translate(3536.94 1920.77)" font-family="Aptos-Bold, Aptos" font-size="35" font-weight="700"><tspan x="0" y="0">G</tspan><tspan x="25.12" y="0" letter-spacing="0em">o</tspan><tspan x="45.01" y="0">als Do</tspan><tspan x="144.65" y="0" letter-spacing="0em">c</tspan><tspan x="163.69" y="0">ument Relea</tspan><tspan x="365.23" y="0" letter-spacing="0em">s</tspan><tspan x="382.98" y="0" letter-spacing="0em">e</tspan></text>
  </g>
  <text transform="translate(5622.63 -3533.66)" font-family="Aptos-ExtraBold, Aptos" font-size="129" font-weight="700"><tspan x="0" y="0" xml:space="preserve">Join                         in </tspan><tspan x="1030.05" y="0" letter-spacing="0em">A</tspan><tspan x="1112.81" y="0" letter-spacing="0em">m</tspan><tspan x="1229.34" y="0" letter-spacing="0em">s</tspan><tspan x="1296.24" y="0" letter-spacing="0em">t</tspan><tspan x="1343.1" y="0" letter-spacing="0em">e</tspan><tspan x="1416.35" y="0" letter-spacing="-.01em">r</tspan><tspan x="1464.42" y="0">dam!</tspan></text>
</svg>