<?xml version="1.0" encoding="UTF-8"?>
<svg id="a" data-name="Layer 1" xmlns="http://www.w3.org/2000/svg" width="1600" height="900" xmlns:xlink="http://www.w3.org/1999/xlink" viewBox="0 0 1600 900">
  <defs>
    <linearGradient id="b" x1="-.48" y1="889.93" x2="1599.52" y2="889.93" gradientUnits="userSpaceOnUse">
      <stop offset="0" stop-color="#0f6bff"/>
      <stop offset="1" stop-color="#000025"/>
    </linearGradient>
    <linearGradient id="c" x1="62.12" y1="347.84" x2="1123.88" y2="347.84" gradientTransform="translate(-5.8)" gradientUnits="userSpaceOnUse">
      <stop offset="0" stop-color="#000"/>
      <stop offset=".56" stop-color="#0a0a0a" stop-opacity=".96"/>
      <stop offset="1" stop-color="#fff" stop-opacity="0"/>
    </linearGradient>
    <clipPath id="d">
      <rect x="-3556.26" y="-7379.26" width="200" height="59.98" fill="none"/>
    </clipPath>
  </defs>
  <text transform="translate(60.46 316.53)" font-family="Aptos-Bold, Aptos" font-size="80" font-weight="700"><tspan x="0" y="0">Meeting </tspan><tspan x="308.01" y="0" letter-spacing=".01em">S</tspan><tspan x="356.76" y="0">eri</tspan><tspan x="452.23" y="0" letter-spacing="0em">e</tspan><tspan x="496.33" y="0">s #5</tspan></text>
  <path d="M110.65,45.49c-4.95,0-9.36,2.24-12.34,5.72-.27-.35-.58-.66-.89-.97-.93-.93-1.97-1.74-3.06-2.4-2.55-1.55-5.49-2.32-8.39-2.36h0c-4.14,0-8.32,1.59-11.45,4.76-3.17,3.17-4.76,7.31-4.76,11.45,0,2.9.77,5.84,2.32,8.39.66,1.08,1.47,2.13,2.4,3.06.93.93,1.97,1.74,3.06,2.4,6.23,3.79,14.5,2.98,19.88-2.4.31-.31.62-.66.89-.97,2.98,3.48,7.39,5.72,12.34,5.72,8.93,0,16.2-7.27,16.2-16.2s-7.27-16.2-16.2-16.2h0ZM77.47,61.69c0-2.17.81-4.33,2.48-5.99,1.66-1.66,3.83-2.48,5.99-2.48h0c.89,0,1.78.15,2.63.43l-6.69,6.69-3.98,3.98c-.27-.85-.43-1.74-.43-2.63ZM91.97,67.69c-2.32,2.32-5.69,3.02-8.62,2.09l4.14-4.14,6.54-6.54.77-.77c-.23,1.08-.35,2.24-.35,3.4,0,2.17-.81,4.33-2.48,5.99v-.04ZM110.65,70.2c-4.68,0-8.51-3.79-8.51-8.51s3.79-8.51,8.51-8.51c4.72,0,8.51,3.79,8.51,8.51,0,4.72-3.79,8.51-8.51,8.51Z" fill="#333"/>
  <polygon points="57.12 58.95 41.19 34.24 31.91 34.24 31.91 77.63 41.19 77.63 41.19 50.48 58.55 77.63 66.44 77.63 66.44 34.24 57.12 34.24 57.12 58.95" fill="#333"/>
  <polygon points="157.45 58.95 141.51 34.24 132.23 34.24 132.23 77.63 141.51 77.63 141.51 50.48 158.88 77.63 166.73 77.63 166.73 34.24 157.45 34.24 157.45 58.95" fill="#0f6bff"/>
  <path d="M194.3,47.97c-2.32-1.43-4.99-2.13-7.97-2.13-2.98,0-5.92.7-8.35,2.09-2.44,1.39-4.33,3.33-5.69,5.76-1.35,2.44-2.05,5.18-2.05,8.16,0,2.98.7,5.72,2.09,8.16,1.39,2.44,3.33,4.37,5.84,5.76s5.41,2.09,8.74,2.09,5.53-.54,7.77-1.66c2.24-1.08,4.1-2.67,5.53-4.76l-6.57-3.91c-.7.89-1.62,1.62-2.82,2.13-1.2.54-2.44.81-3.67.81-2.09,0-3.75-.46-5.07-1.35-1.31-.93-2.32-2.32-3.09-4.18h22.59c.15-.93.23-1.97.23-3.09,0-2.98-.66-5.69-1.93-8.12-1.31-2.44-3.13-4.37-5.45-5.8l-.12.04ZM178.76,58.21c.08-1.35.85-2.48,2.32-3.44,1.47-.97,3.21-1.43,5.18-1.43s3.52.43,4.83,1.28c1.31.85,2.13,2.05,2.4,3.6h-14.77s.04,0,.04,0Z" fill="#0f6bff"/>
  <path d="M232.4,47.93c-2.32-1.39-5.11-2.09-8.35-2.09-3.25,0-3.33.27-4.91.85-1.59.54-3.06,1.35-4.45,2.4v-2.4h-8.86s0,43.39,0,43.39h8.86s0-14.7,0-14.7c1.35,1.04,2.86,1.82,4.45,2.4,1.62.54,3.25.85,4.91.85,3.21,0,5.99-.7,8.35-2.13,2.32-1.43,4.14-3.36,5.38-5.84,1.24-2.48,1.86-5.3,1.86-8.43s-.62-5.96-1.86-8.39c-1.24-2.48-3.02-4.41-5.38-5.8v-.12ZM228.53,67.81c-1.47,1.43-3.36,2.13-5.69,2.13-2.32,0-4.29-.7-5.84-2.13-1.55-1.43-2.32-3.29-2.32-5.61s.77-4.22,2.36-5.69c1.59-1.47,3.52-2.24,5.84-2.24s4.22.73,5.69,2.17c1.47,1.43,2.2,3.36,2.2,5.69s-.73,4.25-2.2,5.69h-.04Z" fill="#0f6bff"/>
  <path d="M264.73,47.15c-1.86-.77-3.64-1.16-5.41-1.16-2.63,0-5.11.97-7.39,2.86v-14.62s-8.86,0-8.86,0v43.39s8.86,0,8.86,0v-18.95c.23-1.7.85-2.94,1.78-3.75.97-.81,2.05-1.2,3.36-1.2s2.86.43,3.98,1.31c1.12.89,1.66,2.32,1.66,4.29v18.29s8.86,0,8.86,0v-18.53c-.04-3.29-.73-5.92-2.09-7.89-1.35-1.93-2.94-3.29-4.76-4.06Z" fill="#0f6bff"/>
  <path d="M299.07,47.97c-2.44-1.43-5.11-2.17-7.97-2.17-2.86,0-5.61.73-8.04,2.17-2.44,1.43-4.41,3.36-5.84,5.84-1.43,2.44-2.17,5.14-2.17,8.04s.73,5.53,2.17,8.01c1.43,2.48,3.36,4.41,5.84,5.84,2.44,1.43,5.14,2.17,8.04,2.17,2.9,0,5.53-.73,7.97-2.17,2.44-1.43,4.37-3.4,5.84-5.84,1.43-2.48,2.17-5.14,2.17-8.01s-.73-5.61-2.17-8.04c-1.43-2.44-3.36-4.37-5.84-5.84ZM296.25,67.03c-1.47,1.43-3.21,2.17-5.22,2.17s-3.75-.73-5.18-2.17c-1.43-1.43-2.17-3.17-2.17-5.18s.73-3.75,2.17-5.22c1.43-1.47,3.17-2.17,5.18-2.17s3.75.73,5.22,2.17c1.47,1.47,2.17,3.21,2.17,5.22,0,2.01-.73,3.75-2.17,5.18Z" fill="#0f6bff"/>
  <path d="M335.7,62.35c-1.2-1.35-2.59-2.32-4.14-2.9-1.59-.58-3.56-1.12-5.96-1.62-1.86-.35-3.21-.73-4.06-1.04-.85-.35-1.28-.85-1.28-1.55s.35-1.39,1.04-1.86c.7-.46,1.62-.7,2.78-.7s2.4.23,3.25.73c.81.5,1.47,1.24,1.97,2.24l7.04-3.44c-1.2-2.05-2.9-3.64-5.03-4.72-2.13-1.08-4.56-1.62-7.23-1.62s-4.37.39-6.27,1.16c-1.93.77-3.44,1.9-4.56,3.36-1.12,1.47-1.7,3.21-1.7,5.18s.58,3.71,1.7,4.95c1.12,1.24,2.48,2.13,4.06,2.75,1.59.58,3.56,1.16,5.88,1.66,2.05.46,3.56.89,4.52,1.28s1.43,1.01,1.43,1.82-.5,1.66-1.55,2.17c-1.04.5-2.24.77-3.6.77-3.36,0-5.53-1.28-6.5-3.87l-7.12,3.64c1.16,2.36,2.9,4.1,5.22,5.3,2.32,1.2,5.11,1.78,8.39,1.78s4.6-.39,6.69-1.12c2.05-.73,3.71-1.86,4.99-3.33,1.24-1.47,1.9-3.25,1.9-5.3s-.58-4.25-1.78-5.61l-.12-.12Z" fill="#0f6bff"/>
  <rect x="-.48" y="879.86" width="1600" height="20.14" fill="url(#b)"/>
  <text transform="translate(62.46 412.36)" font-size="60"><tspan font-family="Aptos, Aptos"><tspan x="0" y="0">I</tspan><tspan x="15.62" y="0" letter-spacing="0em">P</tspan><tspan x="49.72" y="0">CEI</tspan><tspan x="140.24" y="0" letter-spacing="0em">-</tspan><tspan x="160.96" y="0">CIS </tspan><tspan x="264.26" y="0" letter-spacing="-.02em">W</tspan><tspan x="316.29" y="0">or</tspan><tspan x="369.46" y="0" letter-spacing="-.01em">k</tspan><tspan x="397.85" y="0" letter-spacing="0em">s</tspan><tspan x="426.65" y="0">t</tspan><tspan x="446.04" y="0" letter-spacing="-.01em">r</tspan><tspan x="465.29" y="0">eam 2</tspan></tspan><tspan font-family="Aptos-Bold, Aptos" font-weight="700"><tspan x="0" y="72">Mu</tspan><tspan x="84.14" y="72" letter-spacing="0em">l</tspan><tspan x="101.6" y="72">ti Clu</tspan><tspan x="246.24" y="72" letter-spacing="0em">s</tspan><tspan x="276.68" y="72" letter-spacing="0em">t</tspan><tspan x="297.71" y="72">er </tspan><tspan x="365.42" y="72" letter-spacing="-.03em">K</tspan><tspan x="401.22" y="72">uberne</tspan><tspan x="594.93" y="72" letter-spacing="0em">te</tspan><tspan x="649.04" y="72">s</tspan></tspan><tspan font-family="Aptos-Bold, Aptos" font-weight="700"><tspan x="0" y="144">MCK </tspan></tspan></text>
  <text transform="translate(157.94 741.88)" font-family="Aptos-SemiBold, Aptos" font-size="50" font-weight="600"><tspan x="0" y="0" letter-spacing="-.04em">T</tspan><tspan x="22.38" y="0" letter-spacing="0em">u</tspan><tspan x="50.42" y="0" letter-spacing="-.01em">e</tspan><tspan x="76.8" y="0" letter-spacing="-.02em">s</tspan><tspan x="101.03" y="0" letter-spacing="0em">d</tspan><tspan x="129.24" y="0" letter-spacing="-.01em">a</tspan><tspan x="155.75" y="0" letter-spacing="-.08em">y</tspan><tspan x="175.41" y="0" letter-spacing="0em">, Ma</tspan><tspan x="265.75" y="0" letter-spacing="-.02em">r</tspan><tspan x="282.25" y="0" letter-spacing="0em">ch 17th; 10:00 am</tspan><tspan x="665.56" y="0" letter-spacing="0em"> </tspan><tspan x="675.47" y="0" letter-spacing="-.08em">–</tspan><tspan x="694.51" y="0" letter-spacing="0em">11:30 am C</tspan><tspan x="937.39" y="0" letter-spacing="-.01em">E</tspan><tspan x="965.07" y="0" letter-spacing="0em">T</tspan></text>
  <line x1="56.46" y1="347.84" x2="1120.51" y2="347.84" fill="none" stroke="url(#c)" stroke-miterlimit="10" stroke-width="3"/>
  <text transform="translate(1773.87 316.53)" font-family="Aptos-Bold, Aptos" font-size="80" font-weight="700"><tspan x="0" y="0">Open </tspan><tspan x="212.97" y="0" letter-spacing=".01em">S</tspan><tspan x="261.72" y="0" letter-spacing="0em">o</tspan><tspan x="306.91" y="0">u</tspan><tspan x="353.44" y="0" letter-spacing="-.01em">r</tspan><tspan x="382.07" y="0">ce </tspan><tspan x="486.72" y="0" letter-spacing=".01em">S</tspan><tspan x="535.47" y="0">eri</tspan><tspan x="630.94" y="0" letter-spacing="0em">e</tspan><tspan x="675.04" y="0">s</tspan></text>
  <text/>
  <rect x="73.76" y="702.67" width="55.32" height="46.88" rx="3.22" ry="3.22" fill="none" stroke="#333" stroke-miterlimit="10" stroke-width="4"/>
  <rect x="74.08" y="703.49" width="55.32" height="9.98" fill="#333"/>
  <rect x="82.91" y="694.04" width="7.53" height="15.08" rx="3.06" ry="3.06" transform="translate(173.36 1403.16) rotate(180)" fill="#333"/>
  <rect x="82.8" y="694.04" width="7.53" height="15.08" rx="3.06" ry="3.06" transform="translate(173.14 1403.16) rotate(180)" fill="none" stroke="#e6e6e6" stroke-miterlimit="10" stroke-width="2"/>
  <rect x="112.11" y="694.04" width="7.53" height="15.08" rx="3.06" ry="3.06" transform="translate(231.75 1403.16) rotate(180)" fill="#333"/>
  <rect x="112" y="694.04" width="7.53" height="15.08" rx="3.06" ry="3.06" transform="translate(231.53 1403.16) rotate(180)" fill="none" stroke="#e6e6e6" stroke-miterlimit="10" stroke-width="2"/>
  <rect x="102.42" y="719.01" width="7.61" height="6.75" rx=".26" ry=".26" fill="#333"/>
  <rect x="113.26" y="719.01" width="7.61" height="6.75" rx=".26" ry=".26" fill="#333"/>
  <rect x="102.42" y="728.46" width="7.61" height="6.75" rx=".26" ry=".26" fill="#333"/>
  <rect x="113.26" y="728.46" width="7.61" height="6.75" rx=".26" ry=".26" fill="#333"/>
  <rect x="102.42" y="737.91" width="7.61" height="6.75" rx=".26" ry=".26" fill="#333"/>
  <rect x="113.26" y="737.91" width="7.61" height="6.75" rx=".26" ry=".26" fill="#333"/>
  <rect x="80.82" y="728.46" width="7.61" height="6.75" rx=".26" ry=".26" fill="#333"/>
  <rect x="91.66" y="728.46" width="7.61" height="6.75" rx=".26" ry=".26" fill="#333"/>
  <rect x="80.82" y="737.91" width="7.61" height="6.75" rx=".26" ry=".26" fill="#333"/>
  <rect x="91.66" y="737.91" width="7.61" height="6.75" rx=".26" ry=".26" fill="#333"/>
  <text transform="translate(897.23 4533.56)" fill="#1a1a1a" font-family="Aptos-Bold, Aptos" font-size="80" font-weight="700"><tspan x="0" y="0" letter-spacing="0em">K</tspan><tspan x="49.18" y="0" letter-spacing="0em">a</tspan><tspan x="92.81" y="0" letter-spacing="0em">t</tspan><tspan x="121.13" y="0">alis</tspan></text>
  <text transform="translate(7849.38 1299.79)" font-family="Aptos-Bold, Aptos" font-size="35" font-weight="700"><tspan x="0" y="0" letter-spacing="0em">w</tspan><tspan x="26.3" y="0">elcom</tspan><tspan x="126.52" y="0" letter-spacing="0em">e</tspan><tspan x="145.81" y="0">s</tspan></text>
  <g clip-path="url(#d)">
    <text transform="translate(3741.67 1311.7)" font-family="Aptos-Bold, Aptos" font-size="35" font-weight="700"><tspan x="0" y="0">G</tspan><tspan x="25.12" y="0" letter-spacing="0em">o</tspan><tspan x="45.01" y="0">als Do</tspan><tspan x="144.65" y="0" letter-spacing="0em">c</tspan><tspan x="163.69" y="0">ument Relea</tspan><tspan x="365.23" y="0" letter-spacing="0em">s</tspan><tspan x="382.98" y="0" letter-spacing="0em">e</tspan></text>
  </g>
</svg>